<?xml version="1.0" encoding="UTF-8" standalone="no"?>
<svg
   xmlns:dc="http://purl.org/dc/elements/1.1/"
   xmlns:cc="http://creativecommons.org/ns#"
   xmlns:rdf="http://www.w3.org/1999/02/22-rdf-syntax-ns#"
   xmlns:svg="http://www.w3.org/2000/svg"
   xmlns="http://www.w3.org/2000/svg"
   xmlns:sodipodi="http://sodipodi.sourceforge.net/DTD/sodipodi-0.dtd"
   xmlns:inkscape="http://www.inkscape.org/namespaces/inkscape"
   width="24"
   height="24"
   viewBox="0 0 24 24"
   version="1.1"
   id="svg4"
   sodipodi:docname="notifications-notice.svg"
   inkscape:version="0.92.2 (5c3e80d, 2017-08-06)">
  <metadata
     id="metadata10">
    <rdf:RDF>
      <cc:Work
         rdf:about="">
        <dc:format>image/svg+xml</dc:format>
        <dc:type
           rdf:resource="http://purl.org/dc/dcmitype/StillImage" />
      </cc:Work>
    </rdf:RDF>
  </metadata>
  <defs
     id="defs8" />
  <sodipodi:namedview
     pagecolor="#ffffff"
     bordercolor="#666666"
     borderopacity="1"
     objecttolerance="10"
     gridtolerance="10"
     guidetolerance="10"
     inkscape:pageopacity="0"
     inkscape:pageshadow="2"
     inkscape:window-width="756"
     inkscape:window-height="480"
     id="namedview6"
     showgrid="false"
     inkscape:zoom="9.8333333"
     inkscape:cx="12"
     inkscape:cy="12"
     inkscape:window-x="735"
     inkscape:window-y="17"
     inkscape:window-maximized="0"
     inkscape:current-layer="svg4" />
  <path
     d="M3 13.35l1.8-7.2c.2-.996.81-1.8 1.8-1.8h10.8c.99 0 1.6.867 1.8 1.8l1.8 7.2v4.5c0 .99-.81 1.8-1.8 1.8H4.8c-.99 0-1.8-.81-1.8-1.8v-4.5zm6.96 1.8h4.08c-.49.557-1.212.9-2.04.9a2.68 2.68 0 0 1-2.04-.9h4.08c.414-.472.66-1.098.66-1.8h4.14l-1.44-7.2H6.6l-1.44 7.2H9.3c0 .702.246 1.328.66 1.8z"
     id="path2"
     style="fill:#cccccc" />
</svg>
