<?xml version="1.0" encoding="UTF-8" standalone="no"?>
<!-- Created with Inkscape (http://www.inkscape.org/) -->

<svg
   xmlns:dc="http://purl.org/dc/elements/1.1/"
   xmlns:cc="http://creativecommons.org/ns#"
   xmlns:rdf="http://www.w3.org/1999/02/22-rdf-syntax-ns#"
   xmlns:svg="http://www.w3.org/2000/svg"
   xmlns="http://www.w3.org/2000/svg"
   xmlns:xlink="http://www.w3.org/1999/xlink"
   xmlns:sodipodi="http://sodipodi.sourceforge.net/DTD/sodipodi-0.dtd"
   xmlns:inkscape="http://www.inkscape.org/namespaces/inkscape"
   width="677.27612"
   height="261.61295"
   id="svg2"
   version="1.1"
   inkscape:version="0.48.5 r10040"
   sodipodi:docname="Logo Arcade Wikipedia.svg">
  <defs
     id="defs4">
    <linearGradient
       inkscape:collect="always"
       id="linearGradient5145">
      <stop
         style="stop-color:#f9d616;stop-opacity:1"
         offset="0"
         id="stop5147" />
      <stop
         style="stop-color:#f74902;stop-opacity:1"
         offset="1"
         id="stop5149" />
    </linearGradient>
    <linearGradient
       inkscape:collect="always"
       xlink:href="#linearGradient5145"
       id="linearGradient5151"
       x1="319.74225"
       y1="165.62407"
       x2="343.28265"
       y2="490.77762"
       gradientUnits="userSpaceOnUse" />
    <clipPath
       clipPathUnits="userSpaceOnUse"
       id="clipPath4010">
      <path
         sodipodi:nodetypes="ccccsccscscccsccc"
         transform="matrix(-0.89010976,0,0,0.89010976,768.56262,38.836441)"
         inkscape:connector-curvature="0"
         id="path4012"
         d="m 712.96875,210.96875 c -0.79216,0.0314 -1.58871,0.0946 -2.375,0.1875 -0.0103,0.001 -0.021,-0.001 -0.0312,0 l -651.53125,75 c -10.760956,1.23527 -20.256936,8.2974 -24.53125,18.25 -4.274315,9.9526 -2.857505,21.68956 3.65625,30.34375 l 77.3125,102.625 c 5.16459,6.84348 13.11614,11.24316 21.65625,12 l 622.6875,55.1875 c 9.53673,0.84362 19.07043,-2.91259 25.4375,-10.0625 6.36707,-7.14991 9.00142,-17.06192 7.0625,-26.4375 l 0,-0.0312 -48.4375,-232.8125 c -1.45583,-7.01383 -5.36664,-13.32526 -11,-17.75 -5.63338,-4.42473 -12.71595,-6.74726 -19.875,-6.5 l -0.0312,0 z"
         style="font-size:medium;font-style:normal;font-variant:normal;font-weight:normal;font-stretch:normal;text-indent:0;text-align:start;text-decoration:none;line-height:normal;letter-spacing:normal;word-spacing:normal;text-transform:none;direction:ltr;block-progression:tb;writing-mode:lr-tb;text-anchor:start;baseline-shift:baseline;color:#000000;fill:url(#linearGradient4014);fill-opacity:1;stroke:none;stroke-width:4.37613916;marker:none;visibility:visible;display:inline;overflow:visible;enable-background:accumulate;font-family:Sans;-inkscape-font-specification:Sans" />
    </clipPath>
    <linearGradient
       inkscape:collect="always"
       xlink:href="#linearGradient5145"
       id="linearGradient4014"
       gradientUnits="userSpaceOnUse"
       x1="319.74225"
       y1="165.62407"
       x2="343.28265"
       y2="490.77762" />
    <linearGradient
       inkscape:collect="always"
       xlink:href="#linearGradient5145"
       id="linearGradient4023"
       gradientUnits="userSpaceOnUse"
       gradientTransform="matrix(-0.89010976,0,0,0.89010976,768.56262,38.836441)"
       x1="319.74225"
       y1="165.62407"
       x2="343.28265"
       y2="490.77762" />
  </defs>
  <sodipodi:namedview
     id="base"
     pagecolor="#ffffff"
     bordercolor="#666666"
     borderopacity="1.0"
     inkscape:pageopacity="0.0"
     inkscape:pageshadow="2"
     inkscape:zoom="2.56"
     inkscape:cx="148.76743"
     inkscape:cy="201.46156"
     inkscape:document-units="px"
     inkscape:current-layer="layer1"
     showgrid="false"
     inkscape:window-width="1280"
     inkscape:window-height="668"
     inkscape:window-x="0"
     inkscape:window-y="1"
     inkscape:window-maximized="0"
     inkscape:object-nodes="true"
     inkscape:snap-smooth-nodes="true"
     inkscape:snap-object-midpoints="true"
     inkscape:snap-center="true"
     inkscape:object-paths="true"
     inkscape:snap-nodes="true"
     inkscape:snap-global="false"
     fit-margin-top="0"
     fit-margin-left="0"
     fit-margin-right="0"
     fit-margin-bottom="0" />
  <metadata
     id="metadata7">
    <rdf:RDF>
      <cc:Work
         rdf:about="">
        <dc:format>image/svg+xml</dc:format>
        <dc:type
           rdf:resource="http://purl.org/dc/dcmitype/StillImage" />
        <dc:title />
      </cc:Work>
    </rdf:RDF>
  </metadata>
  <g
     inkscape:label="Calque 1"
     inkscape:groupmode="layer"
     id="layer1"
     transform="translate(-62.749644,-226.44363)">
    <path
       style="font-size:medium;font-style:normal;font-variant:normal;font-weight:normal;font-stretch:normal;text-indent:0;text-align:start;text-decoration:none;line-height:normal;letter-spacing:normal;word-spacing:normal;text-transform:none;direction:ltr;block-progression:tb;writing-mode:lr-tb;text-anchor:start;baseline-shift:baseline;color:#000000;fill:url(#linearGradient5151);fill-opacity:1;stroke:none;stroke-width:4.37613916;marker:none;visibility:visible;display:inline;overflow:visible;enable-background:accumulate;font-family:Sans;-inkscape-font-specification:Sans"
       d="m 712.96875,210.96875 c -0.79216,0.0314 -1.58871,0.0946 -2.375,0.1875 -0.0103,0.001 -0.021,-0.001 -0.0312,0 l -651.53125,75 c -10.760956,1.23527 -20.256936,8.2974 -24.53125,18.25 -4.274315,9.9526 -2.857505,21.68956 3.65625,30.34375 l 77.3125,102.625 c 5.16459,6.84348 13.11614,11.24316 21.65625,12 l 622.6875,55.1875 c 9.53673,0.84362 19.07043,-2.91259 25.4375,-10.0625 6.36707,-7.14991 9.00142,-17.06192 7.0625,-26.4375 l 0,-0.0312 -48.4375,-232.8125 c -1.45583,-7.01383 -5.36664,-13.32526 -11,-17.75 -5.63338,-4.42473 -12.71595,-6.74726 -19.875,-6.5 l -0.0312,0 z"
       id="path4904"
       inkscape:connector-curvature="0"
       transform="matrix(-0.84757986,0,0,0.84757986,751.01882,54.050408)"
       sodipodi:nodetypes="ccccsccscscccsccc" />
    <path
       style="font-size:medium;font-style:normal;font-variant:normal;font-weight:normal;font-stretch:normal;text-indent:0;text-align:start;text-decoration:none;line-height:normal;letter-spacing:normal;word-spacing:normal;text-transform:none;direction:ltr;block-progression:tb;writing-mode:lr-tb;text-anchor:start;baseline-shift:baseline;color:#000000;fill:#0b0b28;fill-opacity:1;stroke:none;stroke-width:27.35087013000000056;marker:none;visibility:visible;display:inline;overflow:visible;enable-background:accumulate;font-family:Sans;-inkscape-font-specification:Sans"
       d="m 713.40625,224.625 0.0625,0 c 0.0103,-3.6e-4 0.0209,3.4e-4 0.0312,0 3.88577,-0.12661 7.86294,1.17884 10.9375,3.59375 3.08334,2.42182 5.26535,5.94078 6.0625,9.78125 l 48.125,231.3125 0,0.15625 0.28125,1.375 c 1.05428,5.09792 -0.43662,10.70137 -3.875,14.5625 -3.4401,3.86307 -8.80926,5.99042 -14,5.53125 L 138.34375,435.75 c -4.62697,-0.41005 -9.13894,-2.9072 -11.9375,-6.59375 L 126.375,429.125 49.09375,326.53125 c -3.514105,-4.66885 -4.334806,-11.355 -2.03125,-16.71875 2.301852,-5.35979 7.731597,-9.39675 13.53125,-10.0625 l 651.03125,-74.9375 0.28125,-0.0312 0.15625,-0.0312 0.0625,0 0.0625,0 c 0.26995,-0.0319 0.54037,-0.0748 0.8125,-0.0937 0.13557,-0.009 0.27291,-0.0252 0.40625,-0.0312 z"
       id="path5141"
       inkscape:connector-curvature="0"
       transform="matrix(-0.84757986,0,0,0.84757986,751.01882,54.050408)"
       sodipodi:nodetypes="cccsccccscscccsccccccccc" />
    <g
       id="g4207"
       transform="matrix(1.2741285,0,0,1.2741285,-50.139238,-58.660822)">
      <g
         transform="translate(-8,6)"
         style="fill:#ffc61e"
         id="g3158">
        <path
           style="font-size:72px;font-style:normal;font-variant:normal;font-weight:bold;font-stretch:normal;line-height:125%;letter-spacing:0px;word-spacing:0px;fill:#ffc61e;fill-opacity:1;stroke:none;font-family:Arcade Interlaced;-inkscape-font-specification:Arcade Interlaced Bold"
           d="m 151.84315,324.96193 15.4333,0 c 0.75066,4e-5 1.12601,-1.10391 1.12603,-3.31187 -2e-5,-2.20786 -0.37537,-3.31182 -1.12603,-3.31187 l -15.4333,0 c -0.70654,5e-5 -1.05981,1.10401 -1.0598,3.31187 -1e-5,2.20796 0.35326,3.31191 1.0598,3.31187"
           id="path3134"
           inkscape:connector-curvature="0"
           transform="translate(-2,0)" />
        <path
           style="font-size:72px;font-style:normal;font-variant:normal;font-weight:bold;font-stretch:normal;line-height:125%;letter-spacing:0px;word-spacing:0px;fill:#ffc61e;fill-opacity:1;stroke:none;font-family:Arcade Interlaced;-inkscape-font-specification:Arcade Interlaced Bold"
           d="m 178.27185,324.96193 15.4333,0 c 0.75064,4e-5 1.12598,-1.10391 1.12604,-3.31187 -6e-5,-2.20786 -0.3754,-3.31182 -1.12604,-3.31187 l -15.4333,0 c -0.70657,5e-5 -1.05983,1.10401 -1.0598,3.31187 -3e-5,2.20796 0.35323,3.31191 1.0598,3.31187"
           id="path3132"
           inkscape:connector-curvature="0"
           transform="translate(-2,0)" />
        <path
           style="font-size:72px;font-style:normal;font-variant:normal;font-weight:bold;font-stretch:normal;line-height:125%;letter-spacing:0px;word-spacing:0px;fill:#ffc61e;fill-opacity:1;stroke:none;font-family:Arcade Interlaced;-inkscape-font-specification:Arcade Interlaced Bold"
           d="m 213.4867,324.96193 15.43331,0 c 0.75067,4e-5 1.12601,-1.10391 1.12603,-3.31187 -2e-5,-2.20786 -0.37536,-3.31182 -1.12603,-3.31187 l -15.43331,0 c -0.70653,5e-5 -1.05979,1.10401 -1.05979,3.31187 0,2.20796 0.35326,3.31191 1.05979,3.31187"
           id="path3110"
           inkscape:connector-curvature="0"
           transform="translate(-2,0)" />
        <path
           style="font-size:72px;font-style:normal;font-variant:normal;font-weight:bold;font-stretch:normal;line-height:125%;letter-spacing:0px;word-spacing:0px;fill:#ffc61e;fill-opacity:1;stroke:none;font-family:Arcade Interlaced;-inkscape-font-specification:Arcade Interlaced Bold"
           d="m 257.53454,324.96193 15.4333,0 c 0.75063,4e-5 1.12598,-1.10391 1.12604,-3.31187 -6e-5,-2.20786 -0.37541,-3.31182 -1.12604,-3.31187 l -15.4333,0 c -0.70657,5e-5 -1.05984,1.10401 -1.0598,3.31187 -4e-5,2.20796 0.35323,3.31191 1.0598,3.31187"
           id="path3108"
           inkscape:connector-curvature="0"
           transform="translate(-2,0)" />
        <path
           style="font-size:72px;font-style:normal;font-variant:normal;font-weight:bold;font-stretch:normal;line-height:125%;letter-spacing:0px;word-spacing:0px;fill:#ffc61e;fill-opacity:1;stroke:none;font-family:Arcade Interlaced;-inkscape-font-specification:Arcade Interlaced Bold"
           d="m 292.7494,324.96193 15.4333,0 c 0.75066,4e-5 1.12601,-1.10391 1.12603,-3.31187 -2e-5,-2.20786 -0.37537,-3.31182 -1.12603,-3.31187 l -15.4333,0 c -0.70654,5e-5 -1.05981,1.10401 -1.0598,3.31187 -10e-6,2.20796 0.35326,3.31191 1.0598,3.31187"
           id="path3086"
           inkscape:connector-curvature="0"
           transform="translate(-2,0)" />
        <path
           style="font-size:72px;font-style:normal;font-variant:normal;font-weight:bold;font-stretch:normal;line-height:125%;letter-spacing:0px;word-spacing:0px;fill:#ffc61e;fill-opacity:1;stroke:none;font-family:Arcade Interlaced;-inkscape-font-specification:Arcade Interlaced Bold"
           d="m 327.98767,324.96193 15.4333,0 c 0.75063,4e-5 1.12597,-1.10391 1.12603,-3.31187 -6e-5,-2.20786 -0.3754,-3.31182 -1.12603,-3.31187 l -15.4333,0 c -0.70658,5e-5 -1.05984,1.10401 -1.0598,3.31187 -4e-5,2.20796 0.35322,3.31191 1.0598,3.31187"
           id="path3084"
           inkscape:connector-curvature="0"
           transform="translate(-2,0)" />
        <path
           style="font-size:72px;font-style:normal;font-variant:normal;font-weight:bold;font-stretch:normal;line-height:125%;letter-spacing:0px;word-spacing:0px;fill:#ffc61e;fill-opacity:1;stroke:none;font-family:Arcade Interlaced;-inkscape-font-specification:Arcade Interlaced Bold"
           d="m 363.20252,324.96193 15.4333,0 c 0.75067,4e-5 1.12601,-1.10391 1.12604,-3.31187 -3e-5,-2.20786 -0.37537,-3.31182 -1.12604,-3.31187 l -15.4333,0 c -0.70654,5e-5 -1.05981,1.10401 -1.0598,3.31187 -10e-6,2.20796 0.35326,3.31191 1.0598,3.31187"
           id="path3068"
           inkscape:connector-curvature="0"
           transform="translate(-2,0)" />
        <path
           style="font-size:72px;font-style:normal;font-variant:normal;font-weight:bold;font-stretch:normal;line-height:125%;letter-spacing:0px;word-spacing:0px;fill:#ffc61e;fill-opacity:1;stroke:none;font-family:Arcade Interlaced;-inkscape-font-specification:Arcade Interlaced Bold"
           d="m 389.63122,324.96193 15.43331,0 c 0.75063,4e-5 1.12598,-1.10391 1.12603,-3.31187 -5e-5,-2.20786 -0.3754,-3.31182 -1.12603,-3.31187 l -15.43331,0 c -0.70656,5e-5 -1.05983,1.10401 -1.05979,3.31187 -4e-5,2.20796 0.35323,3.31191 1.05979,3.31187"
           id="path3066"
           inkscape:connector-curvature="0"
           transform="translate(-2,0)" />
        <path
           style="font-size:72px;font-style:normal;font-variant:normal;font-weight:bold;font-stretch:normal;line-height:125%;letter-spacing:0px;word-spacing:0px;fill:#ffc61e;fill-opacity:1;stroke:none;font-family:Arcade Interlaced;-inkscape-font-specification:Arcade Interlaced Bold"
           d="m 424.84608,324.96193 15.4333,0 c 0.75067,4e-5 1.12602,-1.10391 1.12604,-3.31187 -2e-5,-2.20786 -0.37537,-3.31182 -1.12604,-3.31187 l -15.4333,0 c -0.70653,5e-5 -1.0598,1.10401 -1.0598,3.31187 0,2.20796 0.35327,3.31191 1.0598,3.31187"
           id="path3044"
           inkscape:connector-curvature="0"
           transform="translate(-2,0)" />
        <path
           style="font-size:72px;font-style:normal;font-variant:normal;font-weight:bold;font-stretch:normal;line-height:125%;letter-spacing:0px;word-spacing:0px;fill:#ffc61e;fill-opacity:1;stroke:none;font-family:Arcade Interlaced;-inkscape-font-specification:Arcade Interlaced Bold"
           d="m 460.08435,324.96193 15.4333,0 c 0.75064,4e-5 1.12598,-1.10391 1.12604,-3.31187 -6e-5,-2.20786 -0.3754,-3.31182 -1.12604,-3.31187 l -15.4333,0 c -0.70657,5e-5 -1.05983,1.10401 -1.0598,3.31187 -3e-5,2.20796 0.35323,3.31191 1.0598,3.31187"
           id="path3042"
           inkscape:connector-curvature="0"
           transform="translate(-2,0)" />
        <path
           style="font-size:72px;font-style:normal;font-variant:normal;font-weight:bold;font-stretch:normal;line-height:125%;letter-spacing:0px;word-spacing:0px;fill:#ffc61e;fill-opacity:1;stroke:none;font-family:Arcade Interlaced;-inkscape-font-specification:Arcade Interlaced Bold"
           d="m 495.2992,324.96193 15.43331,0 c 0.75067,4e-5 1.12601,-1.10391 1.12603,-3.31187 -2e-5,-2.20786 -0.37536,-3.31182 -1.12603,-3.31187 l -15.43331,0 c -0.70653,5e-5 -1.05979,1.10401 -1.05979,3.31187 0,2.20796 0.35326,3.31191 1.05979,3.31187"
           id="path3020"
           inkscape:connector-curvature="0"
           transform="translate(-2,0)" />
      </g>
      <g
         transform="translate(-8,6)"
         style="fill:#f9d616"
         id="g3171">
        <path
           inkscape:connector-curvature="0"
           style="font-size:72px;font-style:normal;font-variant:normal;font-weight:bold;font-stretch:normal;line-height:125%;letter-spacing:0px;word-spacing:0px;fill:#f9d616;fill-opacity:1;stroke:none;font-family:Arcade Interlaced;-inkscape-font-specification:Arcade Interlaced Bold"
           d="m 160.65271,316.15236 24.24287,0 c 0.75065,5e-5 1.126,-1.1039 1.12604,-3.31187 -4e-5,-2.20785 -0.37539,-3.31181 -1.12604,-3.31187 l -24.24287,0 c -0.70655,6e-5 -1.05981,1.10402 -1.05979,3.31187 -2e-5,2.20797 0.35324,3.31192 1.05979,3.31187"
           id="path3130" />
        <path
           inkscape:connector-curvature="0"
           style="font-size:72px;font-style:normal;font-variant:normal;font-weight:bold;font-stretch:normal;line-height:125%;letter-spacing:0px;word-spacing:0px;fill:#f9d616;fill-opacity:1;stroke:none;font-family:Arcade Interlaced;-inkscape-font-specification:Arcade Interlaced Bold"
           d="m 213.4867,316.15236 50.67158,0 c 0.75063,5e-5 1.12598,-1.1039 1.12603,-3.31187 -5e-5,-2.20785 -0.3754,-3.31181 -1.12603,-3.31187 l -50.67158,0 c -0.70653,6e-5 -1.05979,1.10402 -1.05979,3.31187 0,2.20797 0.35326,3.31192 1.05979,3.31187"
           id="path3106" />
        <path
           inkscape:connector-curvature="0"
           style="font-size:72px;font-style:normal;font-variant:normal;font-weight:bold;font-stretch:normal;line-height:125%;letter-spacing:0px;word-spacing:0px;fill:#f9d616;fill-opacity:1;stroke:none;font-family:Arcade Interlaced;-inkscape-font-specification:Arcade Interlaced Bold"
           d="m 301.55896,316.15236 33.05244,0 c 0.75064,5e-5 1.12598,-1.1039 1.12604,-3.31187 -6e-5,-2.20785 -0.3754,-3.31181 -1.12604,-3.31187 l -33.05244,0 c -0.70655,6e-5 -1.05981,1.10402 -1.05979,3.31187 -2e-5,2.20797 0.35324,3.31192 1.05979,3.31187"
           id="path3082" />
        <path
           inkscape:connector-curvature="0"
           style="font-size:72px;font-style:normal;font-variant:normal;font-weight:bold;font-stretch:normal;line-height:125%;letter-spacing:0px;word-spacing:0px;fill:#f9d616;fill-opacity:1;stroke:none;font-family:Arcade Interlaced;-inkscape-font-specification:Arcade Interlaced Bold"
           d="m 372.01209,316.15236 24.24287,0 c 0.75065,5e-5 1.12599,-1.1039 1.12603,-3.31187 -4e-5,-2.20785 -0.37538,-3.31181 -1.12603,-3.31187 l -24.24287,0 c -0.70655,6e-5 -1.05982,1.10402 -1.0598,3.31187 -2e-5,2.20797 0.35325,3.31192 1.0598,3.31187"
           id="path3064" />
        <path
           inkscape:connector-curvature="0"
           style="font-size:72px;font-style:normal;font-variant:normal;font-weight:bold;font-stretch:normal;line-height:125%;letter-spacing:0px;word-spacing:0px;fill:#f9d616;fill-opacity:1;stroke:none;font-family:Arcade Interlaced;-inkscape-font-specification:Arcade Interlaced Bold"
           d="m 424.84608,316.15236 41.862,0 c 0.75065,5e-5 1.126,-1.1039 1.12604,-3.31187 -4e-5,-2.20785 -0.37539,-3.31181 -1.12604,-3.31187 l -41.862,0 c -0.70653,6e-5 -1.0598,1.10402 -1.0598,3.31187 0,2.20797 0.35327,3.31192 1.0598,3.31187"
           id="path3040" />
        <path
           inkscape:connector-curvature="0"
           style="font-size:72px;font-style:normal;font-variant:normal;font-weight:bold;font-stretch:normal;line-height:125%;letter-spacing:0px;word-spacing:0px;fill:#f9d616;fill-opacity:1;stroke:none;font-family:Arcade Interlaced;-inkscape-font-specification:Arcade Interlaced Bold"
           d="m 495.2992,316.15236 59.48114,0 c 0.75063,5e-5 1.12598,-1.1039 1.12604,-3.31187 -6e-5,-2.20785 -0.37541,-3.31181 -1.12604,-3.31187 l -59.48114,0 c -0.70653,6e-5 -1.05979,1.10402 -1.05979,3.31187 0,2.20797 0.35326,3.31192 1.05979,3.31187"
           id="path3018" />
      </g>
      <g
         style="fill:#fca311"
         transform="translate(-14,6)"
         id="g3199">
        <path
           inkscape:connector-curvature="0"
           style="font-size:72px;font-style:normal;font-variant:normal;font-weight:bold;font-stretch:normal;line-height:125%;letter-spacing:0px;word-spacing:0px;fill:#fca311;fill-opacity:1;stroke:none;font-family:Arcade Interlaced;-inkscape-font-specification:Arcade Interlaced Bold"
           d="m 143.03358,342.58106 15.4333,0 c 0.75067,3e-5 1.12602,-1.10393 1.12604,-3.31187 -2e-5,-2.20788 -0.37537,-3.31183 -1.12604,-3.31186 l -15.4333,0 c -0.70653,3e-5 -1.0598,1.10398 -1.0598,3.31186 0,2.20794 0.35327,3.3119 1.0598,3.31187"
           id="path3124" />
        <path
           inkscape:connector-curvature="0"
           style="font-size:72px;font-style:normal;font-variant:normal;font-weight:bold;font-stretch:normal;line-height:125%;letter-spacing:0px;word-spacing:0px;fill:#fca311;fill-opacity:1;stroke:none;font-family:Arcade Interlaced;-inkscape-font-specification:Arcade Interlaced Bold"
           d="m 187.08142,342.58106 15.4333,0 c 0.75063,3e-5 1.12597,-1.10393 1.12603,-3.31187 -6e-5,-2.20788 -0.3754,-3.31183 -1.12603,-3.31186 l -15.4333,0 c -0.70658,3e-5 -1.05984,1.10398 -1.0598,3.31186 -4e-5,2.20794 0.35322,3.3119 1.0598,3.31187"
           id="path3122" />
        <path
           inkscape:connector-curvature="0"
           style="font-size:72px;font-style:normal;font-variant:normal;font-weight:bold;font-stretch:normal;line-height:125%;letter-spacing:0px;word-spacing:0px;fill:#fca311;fill-opacity:1;stroke:none;font-family:Arcade Interlaced;-inkscape-font-specification:Arcade Interlaced Bold"
           d="m 213.4867,342.58106 15.43331,0 c 0.75067,3e-5 1.12601,-1.10393 1.12603,-3.31187 -2e-5,-2.20788 -0.37536,-3.31183 -1.12603,-3.31186 l -15.43331,0 c -0.70653,3e-5 -1.05979,1.10398 -1.05979,3.31186 0,2.20794 0.35326,3.3119 1.05979,3.31187"
           id="path3098" />
        <path
           inkscape:connector-curvature="0"
           style="font-size:72px;font-style:normal;font-variant:normal;font-weight:bold;font-stretch:normal;line-height:125%;letter-spacing:0px;word-spacing:0px;fill:#fca311;fill-opacity:1;stroke:none;font-family:Arcade Interlaced;-inkscape-font-specification:Arcade Interlaced Bold"
           d="m 248.72497,342.58106 24.24287,0 c 0.75063,3e-5 1.12598,-1.10393 1.12604,-3.31187 -6e-5,-2.20788 -0.37541,-3.31183 -1.12604,-3.31186 l -24.24287,0 c -0.70656,3e-5 -1.05983,1.10398 -1.05979,3.31186 -4e-5,2.20794 0.35323,3.3119 1.05979,3.31187"
           id="path3090" />
        <path
           inkscape:connector-curvature="0"
           style="font-size:72px;font-style:normal;font-variant:normal;font-weight:bold;font-stretch:normal;line-height:125%;letter-spacing:0px;word-spacing:0px;fill:#fca311;fill-opacity:1;stroke:none;font-family:Arcade Interlaced;-inkscape-font-specification:Arcade Interlaced Bold"
           d="m 283.93983,342.58106 15.4333,0 c 0.75067,3e-5 1.12602,-1.10393 1.12604,-3.31187 -2e-5,-2.20788 -0.37537,-3.31183 -1.12604,-3.31186 l -15.4333,0 c -0.70653,3e-5 -1.0598,1.10398 -1.0598,3.31186 0,2.20794 0.35327,3.3119 1.0598,3.31187"
           id="path3076" />
        <path
           inkscape:connector-curvature="0"
           style="font-size:72px;font-style:normal;font-variant:normal;font-weight:bold;font-stretch:normal;line-height:125%;letter-spacing:0px;word-spacing:0px;fill:#fca311;fill-opacity:1;stroke:none;font-family:Arcade Interlaced;-inkscape-font-specification:Arcade Interlaced Bold"
           d="m 354.39295,342.58106 15.43331,0 c 0.75067,3e-5 1.12601,-1.10393 1.12603,-3.31187 -2e-5,-2.20788 -0.37536,-3.31183 -1.12603,-3.31186 l -15.43331,0 c -0.70653,3e-5 -1.05979,1.10398 -1.05979,3.31186 0,2.20794 0.35326,3.3119 1.05979,3.31187"
           id="path3058" />
        <path
           inkscape:connector-curvature="0"
           style="font-size:72px;font-style:normal;font-variant:normal;font-weight:bold;font-stretch:normal;line-height:125%;letter-spacing:0px;word-spacing:0px;fill:#fca311;fill-opacity:1;stroke:none;font-family:Arcade Interlaced;-inkscape-font-specification:Arcade Interlaced Bold"
           d="m 398.44079,342.58106 15.4333,0 c 0.75063,3e-5 1.12598,-1.10393 1.12604,-3.31187 -6e-5,-2.20788 -0.37541,-3.31183 -1.12604,-3.31186 l -15.4333,0 c -0.70657,3e-5 -1.05984,1.10398 -1.0598,3.31186 -4e-5,2.20794 0.35323,3.3119 1.0598,3.31187"
           id="path3056" />
        <path
           inkscape:connector-curvature="0"
           style="font-size:72px;font-style:normal;font-variant:normal;font-weight:bold;font-stretch:normal;line-height:125%;letter-spacing:0px;word-spacing:0px;fill:#fca311;fill-opacity:1;stroke:none;font-family:Arcade Interlaced;-inkscape-font-specification:Arcade Interlaced Bold"
           d="m 424.84608,342.58106 15.4333,0 c 0.75067,3e-5 1.12602,-1.10393 1.12604,-3.31187 -2e-5,-2.20788 -0.37537,-3.31183 -1.12604,-3.31186 l -15.4333,0 c -0.70653,3e-5 -1.0598,1.10398 -1.0598,3.31186 0,2.20794 0.35327,3.3119 1.0598,3.31187"
           id="path3030" />
        <path
           inkscape:connector-curvature="0"
           style="font-size:72px;font-style:normal;font-variant:normal;font-weight:bold;font-stretch:normal;line-height:125%;letter-spacing:0px;word-spacing:0px;fill:#fca311;fill-opacity:1;stroke:none;font-family:Arcade Interlaced;-inkscape-font-specification:Arcade Interlaced Bold"
           d="m 468.89392,342.58106 15.4333,0 c 0.75063,3e-5 1.12597,-1.10393 1.12603,-3.31187 -6e-5,-2.20788 -0.3754,-3.31183 -1.12603,-3.31186 l -15.4333,0 c -0.70658,3e-5 -1.05984,1.10398 -1.0598,3.31186 -4e-5,2.20794 0.35322,3.3119 1.0598,3.31187"
           id="path2998" />
        <path
           inkscape:connector-curvature="0"
           style="font-size:72px;font-style:normal;font-variant:normal;font-weight:bold;font-stretch:normal;line-height:125%;letter-spacing:0px;word-spacing:0px;fill:#fca311;fill-opacity:1;stroke:none;font-family:Arcade Interlaced;-inkscape-font-specification:Arcade Interlaced Bold"
           d="m 495.2992,342.58106 50.67158,0 c 0.75063,3e-5 1.12598,-1.10393 1.12603,-3.31187 -5e-5,-2.20788 -0.3754,-3.31183 -1.12603,-3.31186 l -50.67158,0 c -0.70653,3e-5 -1.05979,1.10398 -1.05979,3.31186 0,2.20794 0.35326,3.3119 1.05979,3.31187"
           id="path3012" />
      </g>
      <g
         style="fill:#ef6b00"
         transform="translate(-18,6)"
         id="g3248">
        <path
           inkscape:connector-curvature="0"
           style="font-size:72px;font-style:normal;font-variant:normal;font-weight:bold;font-stretch:normal;line-height:125%;letter-spacing:0px;word-spacing:0px;fill:#ef6b00;fill-opacity:1;stroke:none;font-family:Arcade Interlaced;-inkscape-font-specification:Arcade Interlaced Bold"
           d="m 143.03358,360.2002 15.4333,0 c 0.75067,1e-5 1.12602,-1.10395 1.12604,-3.31187 -2e-5,-2.2079 -0.37537,-3.31185 -1.12604,-3.31187 l -15.4333,0 c -0.70653,2e-5 -1.0598,1.10397 -1.0598,3.31187 0,2.20792 0.35327,3.31188 1.0598,3.31187"
           id="path3118" />
        <path
           inkscape:connector-curvature="0"
           style="font-size:72px;font-style:normal;font-variant:normal;font-weight:bold;font-stretch:normal;line-height:125%;letter-spacing:0px;word-spacing:0px;fill:#ef6b00;fill-opacity:1;stroke:none;font-family:Arcade Interlaced;-inkscape-font-specification:Arcade Interlaced Bold"
           d="m 187.08142,360.2002 15.4333,0 c 0.75063,1e-5 1.12597,-1.10395 1.12603,-3.31187 -6e-5,-2.2079 -0.3754,-3.31185 -1.12603,-3.31187 l -15.4333,0 c -0.70658,2e-5 -1.05984,1.10397 -1.0598,3.31187 -4e-5,2.20792 0.35322,3.31188 1.0598,3.31187"
           id="path3116" />
        <path
           inkscape:connector-curvature="0"
           style="font-size:72px;font-style:normal;font-variant:normal;font-weight:bold;font-stretch:normal;line-height:125%;letter-spacing:0px;word-spacing:0px;fill:#ef6b00;fill-opacity:1;stroke:none;font-family:Arcade Interlaced;-inkscape-font-specification:Arcade Interlaced Bold"
           d="m 213.4867,360.2002 15.43331,0 c 0.75067,1e-5 1.12601,-1.10395 1.12603,-3.31187 -2e-5,-2.2079 -0.37536,-3.31185 -1.12603,-3.31187 l -15.43331,0 c -0.70653,2e-5 -1.05979,1.10397 -1.05979,3.31187 0,2.20792 0.35326,3.31188 1.05979,3.31187"
           id="path3096" />
        <path
           inkscape:connector-curvature="0"
           style="font-size:72px;font-style:normal;font-variant:normal;font-weight:bold;font-stretch:normal;line-height:125%;letter-spacing:0px;word-spacing:0px;fill:#ef6b00;fill-opacity:1;stroke:none;font-family:Arcade Interlaced;-inkscape-font-specification:Arcade Interlaced Bold"
           d="m 239.91541,360.2002 24.24287,0 c 0.75063,1e-5 1.12598,-1.10395 1.12603,-3.31187 -5e-5,-2.2079 -0.3754,-3.31185 -1.12603,-3.31187 l -24.24287,0 c -0.70656,2e-5 -1.05983,1.10397 -1.0598,3.31187 -3e-5,2.20792 0.35324,3.31188 1.0598,3.31187"
           id="path3094" />
        <path
           inkscape:connector-curvature="0"
           style="font-size:72px;font-style:normal;font-variant:normal;font-weight:bold;font-stretch:normal;line-height:125%;letter-spacing:0px;word-spacing:0px;fill:#ef6b00;fill-opacity:1;stroke:none;font-family:Arcade Interlaced;-inkscape-font-specification:Arcade Interlaced Bold"
           d="m 292.7494,360.2002 15.4333,0 c 0.75066,1e-5 1.12601,-1.10395 1.12603,-3.31187 -2e-5,-2.2079 -0.37537,-3.31185 -1.12603,-3.31187 l -15.4333,0 c -0.70654,2e-5 -1.05981,1.10397 -1.0598,3.31187 -10e-6,2.20792 0.35326,3.31188 1.0598,3.31187"
           id="path3074" />
        <path
           inkscape:connector-curvature="0"
           style="font-size:72px;font-style:normal;font-variant:normal;font-weight:bold;font-stretch:normal;line-height:125%;letter-spacing:0px;word-spacing:0px;fill:#ef6b00;fill-opacity:1;stroke:none;font-family:Arcade Interlaced;-inkscape-font-specification:Arcade Interlaced Bold"
           d="m 327.98767,360.2002 15.4333,0 c 0.75063,1e-5 1.12597,-1.10395 1.12603,-3.31187 -6e-5,-2.2079 -0.3754,-3.31185 -1.12603,-3.31187 l -15.4333,0 c -0.70658,2e-5 -1.05984,1.10397 -1.0598,3.31187 -4e-5,2.20792 0.35322,3.31188 1.0598,3.31187"
           id="path3072" />
        <path
           inkscape:connector-curvature="0"
           style="font-size:72px;font-style:normal;font-variant:normal;font-weight:bold;font-stretch:normal;line-height:125%;letter-spacing:0px;word-spacing:0px;fill:#ef6b00;fill-opacity:1;stroke:none;font-family:Arcade Interlaced;-inkscape-font-specification:Arcade Interlaced Bold"
           d="m 354.39295,360.2002 15.43331,0 c 0.75067,1e-5 1.12601,-1.10395 1.12603,-3.31187 -2e-5,-2.2079 -0.37536,-3.31185 -1.12603,-3.31187 l -15.43331,0 c -0.70653,2e-5 -1.05979,1.10397 -1.05979,3.31187 0,2.20792 0.35326,3.31188 1.05979,3.31187"
           id="path3052" />
        <path
           inkscape:connector-curvature="0"
           style="font-size:72px;font-style:normal;font-variant:normal;font-weight:bold;font-stretch:normal;line-height:125%;letter-spacing:0px;word-spacing:0px;fill:#ef6b00;fill-opacity:1;stroke:none;font-family:Arcade Interlaced;-inkscape-font-specification:Arcade Interlaced Bold"
           d="m 398.44079,360.2002 15.4333,0 c 0.75063,1e-5 1.12598,-1.10395 1.12604,-3.31187 -6e-5,-2.2079 -0.37541,-3.31185 -1.12604,-3.31187 l -15.4333,0 c -0.70657,2e-5 -1.05984,1.10397 -1.0598,3.31187 -4e-5,2.20792 0.35323,3.31188 1.0598,3.31187"
           id="path3050" />
        <path
           inkscape:connector-curvature="0"
           style="font-size:72px;font-style:normal;font-variant:normal;font-weight:bold;font-stretch:normal;line-height:125%;letter-spacing:0px;word-spacing:0px;fill:#ef6b00;fill-opacity:1;stroke:none;font-family:Arcade Interlaced;-inkscape-font-specification:Arcade Interlaced Bold"
           d="m 424.84608,360.2002 15.4333,0 c 0.75067,1e-5 1.12602,-1.10395 1.12604,-3.31187 -2e-5,-2.2079 -0.37537,-3.31185 -1.12604,-3.31187 l -15.4333,0 c -0.70653,2e-5 -1.0598,1.10397 -1.0598,3.31187 0,2.20792 0.35327,3.31188 1.0598,3.31187"
           id="path3028" />
        <path
           inkscape:connector-curvature="0"
           style="font-size:72px;font-style:normal;font-variant:normal;font-weight:bold;font-stretch:normal;line-height:125%;letter-spacing:0px;word-spacing:0px;fill:#ef6b00;fill-opacity:1;stroke:none;font-family:Arcade Interlaced;-inkscape-font-specification:Arcade Interlaced Bold"
           d="m 460.08435,360.2002 15.4333,0 c 0.75064,1e-5 1.12598,-1.10395 1.12604,-3.31187 -6e-5,-2.2079 -0.3754,-3.31185 -1.12604,-3.31187 l -15.4333,0 c -0.70657,2e-5 -1.05983,1.10397 -1.0598,3.31187 -3e-5,2.20792 0.35323,3.31188 1.0598,3.31187"
           id="path3026" />
        <path
           inkscape:connector-curvature="0"
           style="font-size:72px;font-style:normal;font-variant:normal;font-weight:bold;font-stretch:normal;line-height:125%;letter-spacing:0px;word-spacing:0px;fill:#ef6b00;fill-opacity:1;stroke:none;font-family:Arcade Interlaced;-inkscape-font-specification:Arcade Interlaced Bold"
           d="m 495.2992,360.2002 15.43331,0 c 0.75067,1e-5 1.12601,-1.10395 1.12603,-3.31187 -2e-5,-2.2079 -0.37536,-3.31185 -1.12603,-3.31187 l -15.43331,0 c -0.70653,2e-5 -1.05979,1.10397 -1.05979,3.31187 0,2.20792 0.35326,3.31188 1.05979,3.31187"
           id="path3010" />
      </g>
      <g
         style="fill:#f74902"
         transform="translate(-20,6)"
         id="g3279">
        <path
           inkscape:connector-curvature="0"
           style="font-size:72px;font-style:normal;font-variant:normal;font-weight:bold;font-stretch:normal;line-height:125%;letter-spacing:0px;word-spacing:0px;fill:#f74902;fill-opacity:1;stroke:none;font-family:Arcade Interlaced;-inkscape-font-specification:Arcade Interlaced Bold"
           d="m 143.03358,369.00977 15.4333,0 c 0.75067,0 1.12602,-1.10396 1.12604,-3.31187 -2e-5,-2.20791 -0.37537,-3.31186 -1.12604,-3.31187 l -15.4333,0 c -0.70653,10e-6 -1.0598,1.10396 -1.0598,3.31187 0,2.20791 0.35327,3.31187 1.0598,3.31187"
           id="path3114" />
        <path
           inkscape:connector-curvature="0"
           style="font-size:72px;font-style:normal;font-variant:normal;font-weight:bold;font-stretch:normal;line-height:125%;letter-spacing:0px;word-spacing:0px;fill:#f74902;fill-opacity:1;stroke:none;font-family:Arcade Interlaced;-inkscape-font-specification:Arcade Interlaced Bold"
           d="m 187.08142,369.00977 15.4333,0 c 0.75063,0 1.12597,-1.10396 1.12603,-3.31187 -6e-5,-2.20791 -0.3754,-3.31186 -1.12603,-3.31187 l -15.4333,0 c -0.70658,10e-6 -1.05984,1.10396 -1.0598,3.31187 -4e-5,2.20791 0.35322,3.31187 1.0598,3.31187"
           id="path2990" />
        <path
           inkscape:connector-curvature="0"
           style="font-size:72px;font-style:normal;font-variant:normal;font-weight:bold;font-stretch:normal;line-height:125%;letter-spacing:0px;word-spacing:0px;fill:#f74902;fill-opacity:1;stroke:none;font-family:Arcade Interlaced;-inkscape-font-specification:Arcade Interlaced Bold"
           d="m 213.4867,369.00977 15.43331,0 c 0.75067,0 1.12601,-1.10396 1.12603,-3.31187 -2e-5,-2.20791 -0.37536,-3.31186 -1.12603,-3.31187 l -15.43331,0 c -0.70653,10e-6 -1.05979,1.10396 -1.05979,3.31187 0,2.20791 0.35326,3.31187 1.05979,3.31187"
           id="path3092" />
        <path
           inkscape:connector-curvature="0"
           style="font-size:72px;font-style:normal;font-variant:normal;font-weight:bold;font-stretch:normal;line-height:125%;letter-spacing:0px;word-spacing:0px;fill:#f74902;fill-opacity:1;stroke:none;font-family:Arcade Interlaced;-inkscape-font-specification:Arcade Interlaced Bold"
           d="m 248.72497,369.00977 24.24287,0 c 0.75063,0 1.12598,-1.10396 1.12604,-3.31187 -6e-5,-2.20791 -0.37541,-3.31186 -1.12604,-3.31187 l -24.24287,0 c -0.70656,10e-6 -1.05983,1.10396 -1.05979,3.31187 -4e-5,2.20791 0.35323,3.31187 1.05979,3.31187"
           id="path2992" />
        <path
           inkscape:connector-curvature="0"
           style="font-size:72px;font-style:normal;font-variant:normal;font-weight:bold;font-stretch:normal;line-height:125%;letter-spacing:0px;word-spacing:0px;fill:#f74902;fill-opacity:1;stroke:none;font-family:Arcade Interlaced;-inkscape-font-specification:Arcade Interlaced Bold"
           d="m 301.55896,369.00977 33.05244,0 c 0.75064,0 1.12598,-1.10396 1.12604,-3.31187 -6e-5,-2.20791 -0.3754,-3.31186 -1.12604,-3.31187 l -33.05244,0 c -0.70655,10e-6 -1.05981,1.10396 -1.05979,3.31187 -2e-5,2.20791 0.35324,3.31187 1.05979,3.31187"
           id="path2994" />
        <path
           inkscape:connector-curvature="0"
           style="font-size:72px;font-style:normal;font-variant:normal;font-weight:bold;font-stretch:normal;line-height:125%;letter-spacing:0px;word-spacing:0px;fill:#f74902;fill-opacity:1;stroke:none;font-family:Arcade Interlaced;-inkscape-font-specification:Arcade Interlaced Bold"
           d="m 354.39295,369.00977 15.43331,0 c 0.75067,0 1.12601,-1.10396 1.12603,-3.31187 -2e-5,-2.20791 -0.37536,-3.31186 -1.12603,-3.31187 l -15.43331,0 c -0.70653,10e-6 -1.05979,1.10396 -1.05979,3.31187 0,2.20791 0.35326,3.31187 1.05979,3.31187"
           id="path3048" />
        <path
           inkscape:connector-curvature="0"
           style="font-size:72px;font-style:normal;font-variant:normal;font-weight:bold;font-stretch:normal;line-height:125%;letter-spacing:0px;word-spacing:0px;fill:#f74902;fill-opacity:1;stroke:none;font-family:Arcade Interlaced;-inkscape-font-specification:Arcade Interlaced Bold"
           d="m 398.44079,369.00977 15.4333,0 c 0.75063,0 1.12598,-1.10396 1.12604,-3.31187 -6e-5,-2.20791 -0.37541,-3.31186 -1.12604,-3.31187 l -15.4333,0 c -0.70657,10e-6 -1.05984,1.10396 -1.0598,3.31187 -4e-5,2.20791 0.35323,3.31187 1.0598,3.31187"
           id="path2996" />
        <path
           inkscape:connector-curvature="0"
           style="font-size:72px;font-style:normal;font-variant:normal;font-weight:bold;font-stretch:normal;line-height:125%;letter-spacing:0px;word-spacing:0px;fill:#f74902;fill-opacity:1;stroke:none;font-family:Arcade Interlaced;-inkscape-font-specification:Arcade Interlaced Bold"
           d="m 424.84608,369.00977 41.862,0 c 0.75065,0 1.126,-1.10396 1.12604,-3.31187 -4e-5,-2.20791 -0.37539,-3.31186 -1.12604,-3.31187 l -41.862,0 c -0.70653,10e-6 -1.0598,1.10396 -1.0598,3.31187 0,2.20791 0.35327,3.31187 1.0598,3.31187"
           id="path3024" />
        <path
           inkscape:connector-curvature="0"
           style="font-size:72px;font-style:normal;font-variant:normal;font-weight:bold;font-stretch:normal;line-height:125%;letter-spacing:0px;word-spacing:0px;fill:#f74902;fill-opacity:1;stroke:none;font-family:Arcade Interlaced;-inkscape-font-specification:Arcade Interlaced Bold"
           d="m 495.2992,369.00977 59.48114,0 c 0.75063,0 1.12598,-1.10396 1.12604,-3.31187 -6e-5,-2.20791 -0.37541,-3.31186 -1.12604,-3.31187 l -59.48114,0 c -0.70653,10e-6 -1.05979,1.10396 -1.05979,3.31187 0,2.20791 0.35326,3.31187 1.05979,3.31187"
           id="path3000" />
      </g>
      <g
         transform="translate(-8,6)"
         style="fill:#fcb514"
         id="g4058">
        <path
           id="path3179"
           d="m 143.03358,333.77149 15.4333,0 c 0.75067,4e-5 1.12602,-1.10391 1.12604,-3.31186 -2e-5,-2.20787 -0.37537,-3.31183 -1.12604,-3.31187 l -15.4333,0 c -0.70653,4e-5 -1.0598,1.104 -1.0598,3.31187 0,2.20795 0.35327,3.3119 1.0598,3.31186"
           style="font-size:72px;font-style:normal;font-variant:normal;font-weight:bold;font-stretch:normal;line-height:125%;letter-spacing:0px;word-spacing:0px;fill:#fcb514;fill-opacity:1;stroke:none;font-family:Arcade Interlaced;-inkscape-font-specification:Arcade Interlaced Bold"
           inkscape:connector-curvature="0"
           transform="translate(-4,0)" />
        <path
           id="path3181"
           d="m 187.08142,333.77149 15.4333,0 c 0.75063,4e-5 1.12597,-1.10391 1.12603,-3.31186 -6e-5,-2.20787 -0.3754,-3.31183 -1.12603,-3.31187 l -15.4333,0 c -0.70658,4e-5 -1.05984,1.104 -1.0598,3.31187 -4e-5,2.20795 0.35322,3.3119 1.0598,3.31186"
           style="font-size:72px;font-style:normal;font-variant:normal;font-weight:bold;font-stretch:normal;line-height:125%;letter-spacing:0px;word-spacing:0px;fill:#fcb514;fill-opacity:1;stroke:none;font-family:Arcade Interlaced;-inkscape-font-specification:Arcade Interlaced Bold"
           inkscape:connector-curvature="0"
           transform="translate(-4,0)" />
        <path
           id="path3183"
           d="m 213.4867,333.77149 15.43331,0 c 0.75067,4e-5 1.12601,-1.10391 1.12603,-3.31186 -2e-5,-2.20787 -0.37536,-3.31183 -1.12603,-3.31187 l -15.43331,0 c -0.70653,4e-5 -1.05979,1.104 -1.05979,3.31187 0,2.20795 0.35326,3.3119 1.05979,3.31186"
           style="font-size:72px;font-style:normal;font-variant:normal;font-weight:bold;font-stretch:normal;line-height:125%;letter-spacing:0px;word-spacing:0px;fill:#fcb514;fill-opacity:1;stroke:none;font-family:Arcade Interlaced;-inkscape-font-specification:Arcade Interlaced Bold"
           inkscape:connector-curvature="0"
           transform="translate(-4,0)" />
        <path
           id="path3185"
           d="m 257.53454,333.77149 15.4333,0 c 0.75063,4e-5 1.12598,-1.10391 1.12604,-3.31186 -6e-5,-2.20787 -0.37541,-3.31183 -1.12604,-3.31187 l -15.4333,0 c -0.70657,4e-5 -1.05984,1.104 -1.0598,3.31187 -4e-5,2.20795 0.35323,3.3119 1.0598,3.31186"
           style="font-size:72px;font-style:normal;font-variant:normal;font-weight:bold;font-stretch:normal;line-height:125%;letter-spacing:0px;word-spacing:0px;fill:#fcb514;fill-opacity:1;stroke:none;font-family:Arcade Interlaced;-inkscape-font-specification:Arcade Interlaced Bold"
           inkscape:connector-curvature="0"
           transform="translate(-4,0)" />
        <path
           id="path3187"
           d="m 283.93983,333.77149 15.4333,0 c 0.75067,4e-5 1.12602,-1.10391 1.12604,-3.31186 -2e-5,-2.20787 -0.37537,-3.31183 -1.12604,-3.31187 l -15.4333,0 c -0.70653,4e-5 -1.0598,1.104 -1.0598,3.31187 0,2.20795 0.35327,3.3119 1.0598,3.31186"
           style="font-size:72px;font-style:normal;font-variant:normal;font-weight:bold;font-stretch:normal;line-height:125%;letter-spacing:0px;word-spacing:0px;fill:#fcb514;fill-opacity:1;stroke:none;font-family:Arcade Interlaced;-inkscape-font-specification:Arcade Interlaced Bold"
           inkscape:connector-curvature="0"
           transform="translate(-4,0)" />
        <path
           id="path3189"
           d="m 354.39295,333.77149 15.43331,0 c 0.75067,4e-5 1.12601,-1.10391 1.12603,-3.31186 -2e-5,-2.20787 -0.37536,-3.31183 -1.12603,-3.31187 l -15.43331,0 c -0.70653,4e-5 -1.05979,1.104 -1.05979,3.31187 0,2.20795 0.35326,3.3119 1.05979,3.31186"
           style="font-size:72px;font-style:normal;font-variant:normal;font-weight:bold;font-stretch:normal;line-height:125%;letter-spacing:0px;word-spacing:0px;fill:#fcb514;fill-opacity:1;stroke:none;font-family:Arcade Interlaced;-inkscape-font-specification:Arcade Interlaced Bold"
           inkscape:connector-curvature="0"
           transform="translate(-4,0)" />
        <path
           id="path3191"
           d="m 398.44079,333.77149 15.4333,0 c 0.75063,4e-5 1.12598,-1.10391 1.12604,-3.31186 -6e-5,-2.20787 -0.37541,-3.31183 -1.12604,-3.31187 l -15.4333,0 c -0.70657,4e-5 -1.05984,1.104 -1.0598,3.31187 -4e-5,2.20795 0.35323,3.3119 1.0598,3.31186"
           style="font-size:72px;font-style:normal;font-variant:normal;font-weight:bold;font-stretch:normal;line-height:125%;letter-spacing:0px;word-spacing:0px;fill:#fcb514;fill-opacity:1;stroke:none;font-family:Arcade Interlaced;-inkscape-font-specification:Arcade Interlaced Bold"
           inkscape:connector-curvature="0"
           transform="translate(-4,0)" />
        <path
           id="path3193"
           d="m 424.84608,333.77149 15.4333,0 c 0.75067,4e-5 1.12602,-1.10391 1.12604,-3.31186 -2e-5,-2.20787 -0.37537,-3.31183 -1.12604,-3.31187 l -15.4333,0 c -0.70653,4e-5 -1.0598,1.104 -1.0598,3.31187 0,2.20795 0.35327,3.3119 1.0598,3.31186"
           style="font-size:72px;font-style:normal;font-variant:normal;font-weight:bold;font-stretch:normal;line-height:125%;letter-spacing:0px;word-spacing:0px;fill:#fcb514;fill-opacity:1;stroke:none;font-family:Arcade Interlaced;-inkscape-font-specification:Arcade Interlaced Bold"
           inkscape:connector-curvature="0"
           transform="translate(-4,0)" />
        <path
           id="path3195"
           d="m 468.89392,333.77149 15.4333,0 c 0.75063,4e-5 1.12597,-1.10391 1.12603,-3.31186 -6e-5,-2.20787 -0.3754,-3.31183 -1.12603,-3.31187 l -15.4333,0 c -0.70658,4e-5 -1.05984,1.104 -1.0598,3.31187 -4e-5,2.20795 0.35322,3.3119 1.0598,3.31186"
           style="font-size:72px;font-style:normal;font-variant:normal;font-weight:bold;font-stretch:normal;line-height:125%;letter-spacing:0px;word-spacing:0px;fill:#fcb514;fill-opacity:1;stroke:none;font-family:Arcade Interlaced;-inkscape-font-specification:Arcade Interlaced Bold"
           inkscape:connector-curvature="0"
           transform="translate(-4,0)" />
        <path
           id="path3197"
           d="m 495.2992,333.77149 15.43331,0 c 0.75067,4e-5 1.12601,-1.10391 1.12603,-3.31186 -2e-5,-2.20787 -0.37536,-3.31183 -1.12603,-3.31187 l -15.43331,0 c -0.70653,4e-5 -1.05979,1.104 -1.05979,3.31187 0,2.20795 0.35326,3.3119 1.05979,3.31186"
           style="font-size:72px;font-style:normal;font-variant:normal;font-weight:bold;font-stretch:normal;line-height:125%;letter-spacing:0px;word-spacing:0px;fill:#fcb514;fill-opacity:1;stroke:none;font-family:Arcade Interlaced;-inkscape-font-specification:Arcade Interlaced Bold"
           inkscape:connector-curvature="0"
           transform="translate(-4,0)" />
      </g>
      <g
         transform="translate(-8,6)"
         style="fill:#f77f00"
         id="g3239">
        <path
           id="path3211"
           d="m 143.03358,351.39063 59.48114,0 c 0.75063,2e-5 1.12597,-1.10394 1.12603,-3.31187 -6e-5,-2.20789 -0.3754,-3.31184 -1.12603,-3.31187 l -59.48114,0 c -0.70653,3e-5 -1.0598,1.10398 -1.0598,3.31187 0,2.20793 0.35327,3.31189 1.0598,3.31187"
           style="font-size:72px;font-style:normal;font-variant:normal;font-weight:bold;font-stretch:normal;line-height:125%;letter-spacing:0px;word-spacing:0px;fill:#f77f00;fill-opacity:1;stroke:none;font-family:Arcade Interlaced;-inkscape-font-specification:Arcade Interlaced Bold"
           inkscape:connector-curvature="0"
           transform="translate(-8,0)" />
        <path
           id="path3213"
           d="m 213.4867,351.39063 41.86201,0 c 0.75065,2e-5 1.12599,-1.10394 1.12603,-3.31187 -4e-5,-2.20789 -0.37538,-3.31184 -1.12603,-3.31187 l -41.86201,0 c -0.70653,3e-5 -1.05979,1.10398 -1.05979,3.31187 0,2.20793 0.35326,3.31189 1.05979,3.31187"
           style="font-size:72px;font-style:normal;font-variant:normal;font-weight:bold;font-stretch:normal;line-height:125%;letter-spacing:0px;word-spacing:0px;fill:#f77f00;fill-opacity:1;stroke:none;font-family:Arcade Interlaced;-inkscape-font-specification:Arcade Interlaced Bold"
           inkscape:connector-curvature="0"
           transform="translate(-8,0)" />
        <path
           id="path3215"
           d="m 283.93983,351.39063 15.4333,0 c 0.75067,2e-5 1.12602,-1.10394 1.12604,-3.31187 -2e-5,-2.20789 -0.37537,-3.31184 -1.12604,-3.31187 l -15.4333,0 c -0.70653,3e-5 -1.0598,1.10398 -1.0598,3.31187 0,2.20793 0.35327,3.31189 1.0598,3.31187"
           style="font-size:72px;font-style:normal;font-variant:normal;font-weight:bold;font-stretch:normal;line-height:125%;letter-spacing:0px;word-spacing:0px;fill:#f77f00;fill-opacity:1;stroke:none;font-family:Arcade Interlaced;-inkscape-font-specification:Arcade Interlaced Bold"
           inkscape:connector-curvature="0"
           transform="translate(-8,0)" />
        <path
           id="path3217"
           d="m 354.39295,351.39063 59.48114,0 c 0.75063,2e-5 1.12598,-1.10394 1.12604,-3.31187 -6e-5,-2.20789 -0.37541,-3.31184 -1.12604,-3.31187 l -59.48114,0 c -0.70653,3e-5 -1.05979,1.10398 -1.05979,3.31187 0,2.20793 0.35326,3.31189 1.05979,3.31187"
           style="font-size:72px;font-style:normal;font-variant:normal;font-weight:bold;font-stretch:normal;line-height:125%;letter-spacing:0px;word-spacing:0px;fill:#f77f00;fill-opacity:1;stroke:none;font-family:Arcade Interlaced;-inkscape-font-specification:Arcade Interlaced Bold"
           inkscape:connector-curvature="0"
           transform="translate(-8,0)" />
        <path
           id="path3219"
           d="m 424.84608,351.39063 15.4333,0 c 0.75067,2e-5 1.12602,-1.10394 1.12604,-3.31187 -2e-5,-2.20789 -0.37537,-3.31184 -1.12604,-3.31187 l -15.4333,0 c -0.70653,3e-5 -1.0598,1.10398 -1.0598,3.31187 0,2.20793 0.35327,3.31189 1.0598,3.31187"
           style="font-size:72px;font-style:normal;font-variant:normal;font-weight:bold;font-stretch:normal;line-height:125%;letter-spacing:0px;word-spacing:0px;fill:#f77f00;fill-opacity:1;stroke:none;font-family:Arcade Interlaced;-inkscape-font-specification:Arcade Interlaced Bold"
           inkscape:connector-curvature="0"
           transform="translate(-8,0)" />
        <path
           id="path3221"
           d="m 468.89392,351.39063 15.4333,0 c 0.75063,2e-5 1.12597,-1.10394 1.12603,-3.31187 -6e-5,-2.20789 -0.3754,-3.31184 -1.12603,-3.31187 l -15.4333,0 c -0.70658,3e-5 -1.05984,1.10398 -1.0598,3.31187 -4e-5,2.20793 0.35322,3.31189 1.0598,3.31187"
           style="font-size:72px;font-style:normal;font-variant:normal;font-weight:bold;font-stretch:normal;line-height:125%;letter-spacing:0px;word-spacing:0px;fill:#f77f00;fill-opacity:1;stroke:none;font-family:Arcade Interlaced;-inkscape-font-specification:Arcade Interlaced Bold"
           inkscape:connector-curvature="0"
           transform="translate(-8,0)" />
        <path
           id="path3223"
           d="m 495.2992,351.39063 15.43331,0 c 0.75067,2e-5 1.12601,-1.10394 1.12603,-3.31187 -2e-5,-2.20789 -0.37536,-3.31184 -1.12603,-3.31187 l -15.43331,0 c -0.70653,3e-5 -1.05979,1.10398 -1.05979,3.31187 0,2.20793 0.35326,3.31189 1.05979,3.31187"
           style="font-size:72px;font-style:normal;font-variant:normal;font-weight:bold;font-stretch:normal;line-height:125%;letter-spacing:0px;word-spacing:0px;fill:#f77f00;fill-opacity:1;stroke:none;font-family:Arcade Interlaced;-inkscape-font-specification:Arcade Interlaced Bold"
           inkscape:connector-curvature="0"
           transform="translate(-8,0)" />
      </g>
    </g>
    <g
       id="g3960"
       clip-path="url(#clipPath4010)"
       transform="matrix(0.95221949,0,0,0.95221949,19.178508,17.069592)"
       style="stroke:#782144">
      <path
         inkscape:connector-curvature="0"
         id="path3956"
         d="M 519.05032,328.53715 173.4375,202.36218 l 340.18166,87.85766 9.66748,8.07925 -0.27621,16.1585 z"
         style="fill:#006680;fill-opacity:1;fill-rule:nonzero;stroke:#782144;stroke-width:2;stroke-linecap:round;stroke-linejoin:round;stroke-miterlimit:4;stroke-opacity:1;stroke-dasharray:none;stroke-dashoffset:0" />
      <path
         inkscape:connector-curvature="0"
         id="path3958"
         d="m 516.98551,310.37708 -27.69481,-10.97879 8.18087,13.97499 13.56359,1.09828 z"
         style="fill:#37abc8;fill-opacity:1;fill-rule:nonzero;stroke:#782144;stroke-width:2;stroke-linecap:round;stroke-linejoin:round;stroke-miterlimit:4;stroke-opacity:1;stroke-dasharray:none;stroke-dashoffset:0" />
      <path
         sodipodi:nodetypes="ccccc"
         inkscape:connector-curvature="0"
         id="path3954"
         d="M 490.67487,328.90781 173.4375,202.36218 l 321.32475,94.31623 2.70932,16.69487 z"
         style="fill:#006680;fill-opacity:1;fill-rule:nonzero;stroke:#782144;stroke-width:2;stroke-linecap:round;stroke-linejoin:round;stroke-miterlimit:4;stroke-opacity:1;stroke-dasharray:none;stroke-dashoffset:0" />
      <path
         inkscape:connector-curvature="0"
         id="path3952"
         d="m 489.2907,299.39829 -315.8532,-97.03611 326.48919,85.9286 -7.43786,12.07991 z"
         style="fill:#2e90a8;fill-opacity:1;fill-rule:nonzero;stroke:#782144;stroke-width:2;stroke-linecap:round;stroke-linejoin:round;stroke-miterlimit:4;stroke-opacity:1;stroke-dasharray:none;stroke-dashoffset:0" />
      <path
         inkscape:connector-curvature="0"
         id="path3950"
         d="M 499.92669,288.29078 173.4375,202.36218 517.24299,287.83289 z"
         style="fill:#37abc8;fill-opacity:1;fill-rule:nonzero;stroke:#782144;stroke-width:2;stroke-linecap:round;stroke-linejoin:round;stroke-miterlimit:4;stroke-opacity:1;stroke-dasharray:none;stroke-dashoffset:0" />
      <path
         sodipodi:nodetypes="cccc"
         inkscape:connector-curvature="0"
         id="path3946"
         d="M 481.57836,323.6586 173.4375,202.36218 472.07031,329.0584 z"
         style="fill:#37abc8;fill-opacity:1;fill-rule:nonzero;stroke:#782144;stroke-width:2;stroke-linecap:round;stroke-linejoin:round;stroke-miterlimit:4;stroke-opacity:1;stroke-dasharray:none;stroke-dashoffset:0" />
      <path
         inkscape:connector-curvature="0"
         id="path3948"
         d="M 455.33389,323.15901 173.4375,202.36218 l 290.57588,86.58384 1.35302,28.33091 z"
         style="fill:#006680;fill-opacity:1;fill-rule:nonzero;stroke:#782144;stroke-width:2;stroke-linecap:round;stroke-linejoin:round;stroke-miterlimit:4;stroke-opacity:1;stroke-dasharray:none;stroke-dashoffset:0" />
      <path
         inkscape:connector-curvature="0"
         id="path3944"
         d="M 458.38835,322.50619 173.4375,202.36218 448.81269,328.20925 z"
         style="fill:#37abc8;fill-opacity:1;fill-rule:nonzero;stroke:#782144;stroke-width:2;stroke-linecap:round;stroke-linejoin:round;stroke-miterlimit:4;stroke-opacity:1;stroke-dasharray:none;stroke-dashoffset:0" />
      <path
         sodipodi:nodetypes="cccc"
         inkscape:connector-curvature="0"
         id="path3940"
         d="M 449.8736,293.10131 173.4375,202.36218 480.0182,287.45013 z"
         style="fill:#37abc8;fill-opacity:1;fill-rule:nonzero;stroke:#782144;stroke-width:2;stroke-linecap:round;stroke-linejoin:round;stroke-miterlimit:4;stroke-opacity:1;stroke-dasharray:none;stroke-dashoffset:0" />
      <path
         sodipodi:nodetypes="cccccc"
         inkscape:connector-curvature="0"
         id="path3930"
         d="M 397.55192,328.9015 173.4375,202.36218 l 229.29688,85.08795 28.68169,6.84497 -3.08674,31.07022 z"
         style="fill:#006680;fill-opacity:1;fill-rule:nonzero;stroke:#782144;stroke-width:2;stroke-linecap:round;stroke-linejoin:round;stroke-miterlimit:4;stroke-opacity:1;stroke-dasharray:none;stroke-dashoffset:0" />
      <path
         inkscape:connector-curvature="0"
         id="path3938"
         d="m 407.35333,318.12545 0.13713,-11.57163 17.22237,7.66676 3.97384,7.54789 -11.49234,1.23589 z"
         style="fill:#2e90a8;fill-opacity:1;fill-rule:nonzero;stroke:#782144;stroke-width:2;stroke-linecap:round;stroke-linejoin:round;stroke-miterlimit:4;stroke-opacity:1;stroke-dasharray:none;stroke-dashoffset:0" />
      <path
         sodipodi:nodetypes="cccc"
         inkscape:connector-curvature="0"
         id="path3928"
         d="M 396.43968,288.34396 173.4375,202.36218 423.82968,287.73225 z"
         style="fill:#37abc8;fill-opacity:1;fill-rule:nonzero;stroke:#782144;stroke-width:2;stroke-linecap:round;stroke-linejoin:round;stroke-miterlimit:4;stroke-opacity:1;stroke-dasharray:none;stroke-dashoffset:0" />
      <path
         sodipodi:nodetypes="ccccc"
         inkscape:connector-curvature="0"
         id="path3926"
         d="M 382.05495,305.45137 173.4375,202.36218 l 185.08774,106.15681 17.74672,-0.41432 z"
         style="fill:#37abc8;fill-opacity:1;fill-rule:nonzero;stroke:#782144;stroke-width:2;stroke-linecap:round;stroke-linejoin:round;stroke-miterlimit:4;stroke-opacity:1;stroke-dasharray:none;stroke-dashoffset:0" />
      <path
         sodipodi:nodetypes="cccc"
         inkscape:connector-curvature="0"
         id="path3924"
         d="M 388.30369,323.49277 172.81387,201.84684 352.63672,325.50671 z"
         style="fill:#37abc8;fill-opacity:1;fill-rule:nonzero;stroke:#782144;stroke-width:2;stroke-linecap:round;stroke-linejoin:round;stroke-miterlimit:4;stroke-opacity:1;stroke-dasharray:none;stroke-dashoffset:0" />
      <path
         inkscape:connector-curvature="0"
         id="path3922"
         d="M 349.88761,328.20915 173.4375,202.36218 351.9884,287.45013 z"
         style="fill:#006680;fill-opacity:1;fill-rule:nonzero;stroke:#782144;stroke-width:2;stroke-linecap:round;stroke-linejoin:round;stroke-miterlimit:4;stroke-opacity:1;stroke-dasharray:none;stroke-dashoffset:0" />
      <path
         inkscape:connector-curvature="0"
         id="path3920"
         d="M 349.88761,288.34396 173.4375,202.36218 388.97108,288.34396 z"
         style="fill:#37abc8;fill-opacity:1;fill-rule:nonzero;stroke:#782144;stroke-width:2;stroke-linecap:round;stroke-linejoin:round;stroke-miterlimit:4;stroke-opacity:1;stroke-dasharray:none;stroke-dashoffset:0" />
      <path
         inkscape:connector-curvature="0"
         id="path3918"
         d="m 336.4983,316.86545 -30.48919,-4.24507 -12.53217,-9.48755 11.95939,-15.6827 26.17242,8.89369 z"
         style="fill:#37abc8;fill-opacity:1;fill-rule:nonzero;stroke:#782144;stroke-width:2;stroke-linecap:round;stroke-linejoin:round;stroke-miterlimit:4;stroke-opacity:1;stroke-dasharray:none;stroke-dashoffset:0" />
      <path
         inkscape:connector-curvature="0"
         id="path3916"
         d="m 330.77718,310.37708 -157.33968,-108.0149 156.79893,87.13479 6.88225,9.07833 z"
         style="fill:#006680;fill-opacity:1;fill-rule:nonzero;stroke:#782144;stroke-width:2;stroke-linecap:round;stroke-linejoin:round;stroke-miterlimit:4;stroke-opacity:1;stroke-dasharray:none;stroke-dashoffset:0" />
      <path
         sodipodi:nodetypes="cccc"
         inkscape:connector-curvature="0"
         id="path3914"
         d="M 303.33554,328.20915 173.4375,202.36218 310.32596,287.45013 z"
         style="fill:#006680;fill-opacity:1;fill-rule:nonzero;stroke:#782144;stroke-width:2;stroke-linecap:round;stroke-linejoin:round;stroke-miterlimit:4;stroke-opacity:1;stroke-dasharray:none;stroke-dashoffset:0" />
      <path
         inkscape:connector-curvature="0"
         id="path3912"
         d="m 303.33554,288.29927 -129.89804,-85.93709 164.62982,86.1007 -18.73138,2.47352 z"
         style="fill:#37abc8;fill-opacity:1;fill-rule:nonzero;stroke:#782144;stroke-width:2;stroke-linecap:round;stroke-linejoin:round;stroke-miterlimit:4;stroke-opacity:1;stroke-dasharray:none;stroke-dashoffset:0" />
      <path
         inkscape:connector-curvature="0"
         id="path3910"
         d="M 296.19541,324.36426 173.4375,202.36218 277.18033,329.0584 z"
         style="fill:#37abc8;fill-opacity:1;fill-rule:nonzero;stroke:#782144;stroke-width:2;stroke-linecap:round;stroke-linejoin:round;stroke-miterlimit:4;stroke-opacity:1;stroke-dasharray:none;stroke-dashoffset:0" />
      <path
         sodipodi:nodetypes="ccccc"
         inkscape:connector-curvature="0"
         id="path3906"
         d="m 262.60441,328.20925 -89.16691,-125.84707 103.76885,87.89964 2.28584,33.78005 z"
         style="fill:#37abc8;fill-opacity:1;fill-rule:nonzero;stroke:#782144;stroke-width:2;stroke-linecap:round;stroke-linejoin:round;stroke-miterlimit:4;stroke-opacity:1;stroke-dasharray:none;stroke-dashoffset:0" />
      <path
         inkscape:connector-curvature="0"
         id="path3908"
         d="m 272.62984,322.16392 -99.19234,-119.80174 103.76885,87.89964 1.92662,28.47145 z"
         style="fill:#006680;fill-opacity:1;fill-rule:nonzero;stroke:#782144;stroke-width:2;stroke-linecap:round;stroke-linejoin:round;stroke-miterlimit:4;stroke-opacity:1;stroke-dasharray:none;stroke-dashoffset:0" />
      <path
         sodipodi:nodetypes="cccc"
         inkscape:connector-curvature="0"
         id="path3904"
         d="m 262.45499,292.35658 -89.01749,-89.9944 121.61546,85.36534 z"
         style="fill:#37abc8;fill-opacity:1;fill-rule:nonzero;stroke:#782144;stroke-width:2;stroke-linecap:round;stroke-linejoin:round;stroke-miterlimit:4;stroke-opacity:1;stroke-dasharray:none;stroke-dashoffset:0" />
      <path
         inkscape:connector-curvature="0"
         id="path3900"
         d="m 241.4369,329.0583 -25.71409,-25.09683 -42.28531,-101.59929 67.99941,85.08795 -9.00318,23.00236 z"
         style="fill:#006680;fill-opacity:1;fill-rule:nonzero;stroke:#782144;stroke-width:2;stroke-linecap:round;stroke-linejoin:round;stroke-miterlimit:4;stroke-opacity:1;stroke-dasharray:none;stroke-dashoffset:0" />
      <path
         sodipodi:nodetypes="cccc"
         inkscape:connector-curvature="0"
         id="path3898"
         d="M 209.69303,327.42396 173.4375,202.36218 212.33219,287.45013 z"
         style="fill:#006680;fill-opacity:1;fill-rule:nonzero;stroke:#782144;stroke-width:2;stroke-linecap:round;stroke-linejoin:round;stroke-miterlimit:4;stroke-opacity:1;stroke-dasharray:none;stroke-dashoffset:0" />
      <path
         inkscape:connector-curvature="0"
         id="path3896"
         d="m 249.31487,288.34396 -75.87737,-85.98178 64.10618,85.85511 z"
         style="fill:#37abc8;fill-opacity:1;fill-rule:nonzero;stroke:#782144;stroke-width:2;stroke-linecap:round;stroke-linejoin:round;stroke-miterlimit:4;stroke-opacity:1;stroke-dasharray:none;stroke-dashoffset:0" />
      <path
         sodipodi:nodetypes="cccc"
         inkscape:connector-curvature="0"
         id="path3894"
         d="m 209.69429,288.53927 -36.25679,-86.17709 47.42967,87.02013 z"
         style="fill:#37abc8;fill-opacity:1;fill-rule:nonzero;stroke:#782144;stroke-width:2;stroke-linecap:round;stroke-linejoin:round;stroke-miterlimit:4;stroke-opacity:1;stroke-dasharray:none;stroke-dashoffset:0" />
      <path
         sodipodi:nodetypes="cccc"
         inkscape:connector-curvature="0"
         id="path3890"
         d="m 168.66871,326.06404 4.76879,-123.70186 30.15687,123.70186 z"
         style="fill:#37abc8;fill-opacity:1;fill-rule:nonzero;stroke:#782144;stroke-width:2;stroke-linecap:round;stroke-linejoin:round;stroke-miterlimit:4;stroke-opacity:1;stroke-dasharray:none;stroke-dashoffset:0" />
      <path
         sodipodi:nodetypes="cccc"
         inkscape:connector-curvature="0"
         id="path3888"
         d="m 168.66871,290.44448 4.76879,-88.0823 30.02785,87.15903 z"
         style="fill:#37abc8;fill-opacity:1;fill-rule:nonzero;stroke:#782144;stroke-width:2;stroke-linecap:round;stroke-linejoin:round;stroke-miterlimit:4;stroke-opacity:1;stroke-dasharray:none;stroke-dashoffset:0" />
      <path
         inkscape:connector-curvature="0"
         id="path3886"
         d="m 124.02344,313.88562 -1.38461,-11.58143 50.79867,-99.94201 -23.82812,100.19531 -9.96094,12.89063 z"
         style="fill:#006680;fill-opacity:1;fill-rule:nonzero;stroke:#782144;stroke-width:2;stroke-linecap:round;stroke-linejoin:round;stroke-miterlimit:4;stroke-opacity:1;stroke-dasharray:none;stroke-dashoffset:0" />
      <path
         inkscape:connector-curvature="0"
         id="path3884"
         d="m 128.81291,309.79608 44.62459,-107.4339 -46.37524,85.98178 -4.42343,13.96023 z"
         style="fill:#0088aa;stroke:#782144;stroke-width:2;stroke-linecap:round;stroke-linejoin:round;stroke-miterlimit:4;stroke-opacity:1;stroke-dasharray:none;stroke-dashoffset:0" />
      <path
         sodipodi:nodetypes="ccccc"
         inkscape:connector-curvature="0"
         id="path3880"
         d="m 157.0423,326.06394 16.3952,-123.70176 -36.74662,102.92002 11.45365,15.63467 z"
         style="fill:#0088aa;fill-opacity:1;fill-rule:nonzero;stroke:#782144;stroke-width:2;stroke-linecap:round;stroke-linejoin:round;stroke-miterlimit:4;stroke-opacity:1;stroke-dasharray:none;stroke-dashoffset:0" />
      <path
         sodipodi:nodetypes="cccc"
         inkscape:connector-curvature="0"
         id="path3866"
         d="m 116.55208,289.13417 56.88542,-86.77199 -45.83813,86.37241 z"
         style="fill:#37abc8;fill-opacity:1;fill-rule:nonzero;stroke:#782144;stroke-width:2;stroke-linecap:round;stroke-linejoin:round;stroke-miterlimit:4;stroke-opacity:1;stroke-dasharray:none;stroke-dashoffset:0" />
      <path
         sodipodi:nodetypes="cccc"
         inkscape:connector-curvature="0"
         id="path3868"
         d="m 145.45073,289.66646 27.98677,-87.30428 -16.48928,87.25131 z"
         style="fill:#37abc8;fill-opacity:1;fill-rule:nonzero;stroke:#782144;stroke-width:2;stroke-linecap:round;stroke-linejoin:round;stroke-miterlimit:4;stroke-opacity:1;stroke-dasharray:none;stroke-dashoffset:0" />
      <path
         inkscape:connector-curvature="0"
         id="path3934"
         d="m 397.74151,323.30764 3.26708,-8.32775 16.18574,8.02447 -12.84863,3.86954 z"
         style="fill:#37abc8;fill-opacity:1;fill-rule:nonzero;stroke:#782144;stroke-width:2;stroke-linecap:round;stroke-linejoin:round;stroke-miterlimit:4;stroke-opacity:1;stroke-dasharray:none;stroke-dashoffset:0" />
      <g
         id="text5494"
         style="font-size:72px;font-style:normal;font-variant:normal;font-weight:bold;font-stretch:normal;line-height:125%;letter-spacing:0px;word-spacing:0px;fill:#00ccff;fill-opacity:1;stroke:#782144;stroke-width:2.99535036000000021;stroke-miterlimit:4;font-family:College Slab;-inkscape-font-specification:College Slab Bold"
         transform="matrix(0.66075237,0,0,0.67472377,190.39427,148.28928)">
        <path
           id="path3848"
           style="font-weight:normal;fill:#00ccff;stroke:#782144;font-family:Arcade Rounded;-inkscape-font-specification:Arcade Rounded"
           d="m -63.656983,206.24862 c -1.236477,6e-5 -2.296274,0.41956 -3.179392,1.2585 -0.839051,0.83907 -1.258554,1.87679 -1.25851,3.11316 l 0,26.4287 c -4.4e-5,1.54557 -0.441626,2.31834 -1.324747,2.31831 -0.441625,3e-5 -1.258551,-0.57403 -2.450782,-1.72217 -1.633893,-1.54551 -2.914481,-2.62738 -3.841766,-3.24563 -1.810523,-1.14808 -3.665166,-1.72214 -5.563938,-1.72217 -1.987149,3e-5 -3.863872,0.57409 -5.630175,1.72217 -0.883189,0.57409 -2.163776,1.65596 -3.841766,3.24563 -1.192292,1.14814 -2.009219,1.7222 -2.450782,1.72217 -0.883183,3e-5 -1.324764,-0.77274 -1.324747,-2.31831 l 0,-26.4287 c -1.7e-5,-1.19221 -0.441599,-2.20785 -1.324747,-3.04692 -0.839022,-0.8831 -1.85466,-1.32468 -3.046918,-1.32474 l -8.809567,0 c -1.23643,6e-5 -2.29623,0.41956 -3.17939,1.2585 -0.83901,0.83907 -1.25851,1.87679 -1.25851,3.11316 l 0,52.85741 c 0,1.23643 0.4195,2.29623 1.25851,3.17939 0.88316,0.83901 1.94296,1.25851 3.17939,1.25851 l 8.809567,0 c 2.472845,0 4.879467,-0.99356 7.219871,-2.98068 0.48572,-0.39742 2.296206,-2.20791 5.431463,-5.43147 1.942934,-1.98711 3.598867,-2.98066 4.967801,-2.98068 1.324715,2e-5 2.958568,0.99357 4.901564,2.98068 3.135196,3.22356 4.945682,5.03405 5.431463,5.43147 2.340343,1.98712 4.769043,2.98068 7.286108,2.98068 l 8.809568,0 c 1.236372,0 2.27409,-0.4195 3.113156,-1.25851 0.838945,-0.88316 1.258448,-1.94296 1.258509,-3.17939 l 0,-52.85741 c -6.1e-5,-1.19221 -0.441643,-2.20785 -1.324747,-3.04692 -0.839066,-0.8831 -1.854704,-1.32468 -3.046918,-1.32474 l -8.809568,0"
           inkscape:connector-curvature="0" />
        <path
           id="path3850"
           style="font-weight:normal;fill:#00ccff;stroke:#782144;font-family:Arcade Rounded;-inkscape-font-specification:Arcade Rounded"
           d="m -32.88003,210.68652 c -9e-6,-1.23637 0.419494,-2.27409 1.258509,-3.11316 0.883154,-0.8831 1.94295,-1.32468 3.179393,-1.32474 l 44.047838,0 c 1.236372,6e-5 2.27409,0.44164 3.113156,1.32474 0.838945,0.83907 1.258448,1.87679 1.258509,3.11316 -6.1e-5,2.95865 -2.163813,4.43795 -6.49126,4.4379 -0.529954,5e-5 -1.302722,-0.022 -2.318307,-0.0662 -1.015692,-0.0441 -1.7884599,-0.0662 -2.3183076,-0.0662 -4.3275532,5e-5 -6.4913044,1.50143 -6.4912604,4.50414 l 0,35.17203 c -4.4e-5,3.00277 2.1637072,4.50415 6.4912604,4.50414 0.5298477,1e-5 1.3026156,-0.0221 2.3183076,-0.0662 1.015585,-0.0442 1.788353,-0.0662 2.318307,-0.0662 4.327447,10e-6 6.491199,1.47931 6.49126,4.43791 -6.1e-5,1.23643 -0.419564,2.29623 -1.258509,3.17939 -0.839066,0.83901 -1.876784,1.25851 -3.113156,1.25851 l -44.047838,0 c -1.236443,0 -2.296239,-0.4195 -3.179393,-1.25851 -0.839015,-0.88316 -1.258518,-1.94296 -1.258509,-3.17939 -9e-6,-2.9586 2.163742,-4.4379 6.49126,-4.43791 0.529883,10e-6 1.302651,0.0221 2.318307,0.0662 1.015621,0.0442 1.788389,0.0663 2.318307,0.0662 4.327483,1e-5 6.491234,-1.50137 6.491261,-4.50414 l 0,-35.17203 c -2.7e-5,-3.00271 -2.163778,-4.50409 -6.491261,-4.50414 -0.529918,5e-5 -1.302686,0.0221 -2.318307,0.0662 -1.015656,0.0442 -1.788424,0.0663 -2.318307,0.0662 -4.327518,5e-5 -6.491269,-1.47925 -6.49126,-4.4379"
           inkscape:connector-curvature="0" />
        <path
           sodipodi:nodetypes="cccsscccccccsscsscccccscccccsscc"
           inkscape:connector-curvature="0"
           id="path3852"
           style="font-weight:normal;fill:#00ccff;stroke:#782144;font-family:Arcade Rounded;-inkscape-font-specification:Arcade Rounded"
           d="m 89.171991,207.57336 c -0.839066,-0.8831 -1.876784,-1.32468 -3.113156,-1.32474 l -8.809568,0 c -2.958647,6e-5 -5.475663,1.03777 -7.551057,3.11315 l -20.202392,20.20239 c -0.662394,0.66241 -1.25853,0.9936 -1.788409,0.99356 -0.883183,4e-5 -1.324764,-0.77273 -1.324747,-2.3183 l 0,-17.5529 c -1.7e-5,-1.23637 -0.41952,-2.27409 -1.25851,-3.11316 -0.839021,-0.8831 -1.876739,-1.32468 -3.113155,-1.32474 l -8.809568,0 c -1.236433,6e-5 -2.29623,0.44164 -3.179392,1.32474 -0.839007,0.83907 -1.25851,1.87679 -1.25851,3.11316 l 0,52.79117 c 0,1.23643 0.419503,2.29623 1.25851,3.17939 0.883162,0.83901 1.942959,1.25851 3.179392,1.25851 l 8.809568,0 c 2.958585,0 4.437885,-2.16375 4.437903,-6.49126 -1.8e-5,-0.52989 -0.0221,-1.30266 -0.06624,-2.31831 -0.04418,-1.01563 -0.06626,-1.7884 -0.06624,-2.31831 -1.8e-5,-4.32749 1.501361,-6.49124 4.50414,-6.49126 l 26.428702,17.61914 8.809568,0 c 1.236372,0 2.27409,-0.4195 3.113156,-1.25851 0.838945,-0.88316 1.258448,-1.94296 1.258509,-3.17939 -6.1e-5,-2.91444 -1.037779,-5.40938 -3.113155,-7.48482 L 71.55285,240.22838 c -0.883206,-0.88314 -1.324788,-1.92086 -1.324747,-3.11316 -4.1e-5,-1.2364 0.441541,-2.29619 1.324747,-3.17939 l 15.76449,-15.76449 c 2.075376,-2.07539 3.113094,-4.57032 3.113158,-7.48482 -5.9e-5,-1.23637 -0.419562,-2.27409 -1.258507,-3.11316 z" />
        <path
           id="path3854"
           style="font-weight:normal;fill:#00ccff;stroke:#782144;font-family:Arcade Rounded;-inkscape-font-specification:Arcade Rounded"
           d="m 108.02622,210.68652 c -10e-6,-1.23637 0.41949,-2.27409 1.25851,-3.11316 0.88315,-0.8831 1.94295,-1.32468 3.17939,-1.32474 l 44.04784,0 c 1.23637,6e-5 2.27409,0.44164 3.11316,1.32474 0.83894,0.83907 1.25844,1.87679 1.25851,3.11316 -7e-5,2.95865 -2.16382,4.43795 -6.49127,4.4379 -0.52995,5e-5 -1.30272,-0.022 -2.3183,-0.0662 -1.01569,-0.0441 -1.78846,-0.0662 -2.31831,-0.0662 -4.32755,5e-5 -6.4913,1.50143 -6.49126,4.50414 l 0,35.17203 c -4e-5,3.00277 2.16371,4.50415 6.49126,4.50414 0.52985,1e-5 1.30262,-0.0221 2.31831,-0.0662 1.01558,-0.0442 1.78835,-0.0662 2.3183,-0.0662 4.32745,10e-6 6.4912,1.47931 6.49127,4.43791 -7e-5,1.23643 -0.41957,2.29623 -1.25851,3.17939 -0.83907,0.83901 -1.87679,1.25851 -3.11316,1.25851 l -44.04784,0 c -1.23644,0 -2.29624,-0.4195 -3.17939,-1.25851 -0.83902,-0.88316 -1.25852,-1.94296 -1.25851,-3.17939 -10e-6,-2.9586 2.16374,-4.4379 6.49126,-4.43791 0.52988,10e-6 1.30265,0.0221 2.31831,0.0662 1.01562,0.0442 1.78839,0.0663 2.3183,0.0662 4.32749,1e-5 6.49124,-1.50137 6.49126,-4.50414 l 0,-35.17203 c -2e-5,-3.00271 -2.16377,-4.50409 -6.49126,-4.50414 -0.52991,5e-5 -1.30268,0.0221 -2.3183,0.0662 -1.01566,0.0442 -1.78843,0.0663 -2.31831,0.0662 -4.32752,5e-5 -6.49127,-1.47925 -6.49126,-4.4379"
           inkscape:connector-curvature="0" />
        <path
           id="path3856"
           style="font-weight:normal;fill:#00ccff;stroke:#782144;font-family:Arcade Rounded;-inkscape-font-specification:Arcade Rounded"
           d="m 218.15552,206.24862 -44.04784,0 c -1.23643,6e-5 -2.29623,0.41956 -3.17939,1.2585 -0.83901,0.83907 -1.25851,1.87679 -1.25851,3.11316 l 0,52.85741 c 0,1.23643 0.4195,2.29623 1.25851,3.17939 0.88316,0.83901 1.94296,1.25851 3.17939,1.25851 l 8.80957,0 c 2.95858,0 4.43788,-2.16375 4.4379,-6.49126 -2e-5,-0.52989 -0.0221,-1.30266 -0.0662,-2.31831 -0.0442,-1.01563 -0.0662,-1.7884 -0.0662,-2.31831 -1e-5,-4.32749 1.50137,-6.49124 4.50414,-6.49126 l 26.42871,0 c 3.09102,2e-5 6.04962,-1.43512 8.8758,-4.30542 2.87023,-2.87027 4.30537,-5.85094 4.30543,-8.94205 l 0,-17.61913 c -6e-5,-3.09103 -1.4352,-6.04963 -4.30543,-8.87581 -2.82618,-2.87022 -5.78478,-4.30536 -8.8758,-4.30542 m -4.4379,30.80036 c -5e-5,1.23646 -0.41955,2.29626 -1.25851,3.1794 -0.83905,0.83903 -1.87677,1.25853 -3.11316,1.25851 l -17.61914,0 c -1.23645,2e-5 -2.29624,-0.41948 -3.17939,-1.25851 -0.83902,-0.88314 -1.25853,-1.94294 -1.25851,-3.1794 l 0,-17.61913 c -2e-5,-1.23638 0.41949,-2.2741 1.25851,-3.11316 0.88315,-0.83895 1.94294,-1.25845 3.17939,-1.25851 l 17.61914,0 c 1.19223,6e-5 2.20787,0.44164 3.04692,1.32475 0.88312,0.83906 1.3247,1.8547 1.32475,3.04692 l 0,17.61913"
           inkscape:connector-curvature="0" />
        <path
           id="path3858"
           style="font-weight:normal;fill:#00ccff;stroke:#782144;font-family:Arcade Rounded;-inkscape-font-specification:Arcade Rounded"
           d="m 240.1229,210.68652 c 0,-1.23637 0.4195,-2.27409 1.25851,-3.11316 0.88316,-0.8831 1.94296,-1.32468 3.17939,-1.32474 l 52.85741,0 c 1.23637,6e-5 2.27409,0.44164 3.11316,1.32474 0.83894,0.83907 1.25844,1.87679 1.25851,3.11316 -7e-5,1.19233 -0.44165,2.23004 -1.32475,3.11315 -0.83907,0.83906 -1.85471,1.25857 -3.04692,1.25851 l -35.23827,0 c -1.23645,6e-5 -2.29625,0.44164 -3.17939,1.32475 -0.83903,0.83906 -1.25853,1.87677 -1.25851,3.11316 l 0,8.74333 c -2e-5,1.23646 0.41948,2.29626 1.25851,3.17939 0.88314,0.83904 1.94294,1.25854 3.17939,1.25851 l 26.4287,0 c 1.19223,3e-5 2.20786,0.44162 3.04692,1.32474 0.88311,0.83904 1.32469,1.85468 1.32475,3.04692 -6e-5,1.23646 -0.41956,2.29626 -1.25851,3.1794 -0.83906,0.83903 -1.87678,1.25853 -3.11316,1.25851 l -26.4287,0 c -1.23645,2e-5 -2.29625,0.4416 -3.17939,1.32474 -0.83903,0.83903 -1.25853,1.87675 -1.25851,3.11316 l 0,8.74333 c -2e-5,1.23644 0.41948,2.29624 1.25851,3.17939 0.88314,0.83902 1.94294,1.25852 3.17939,1.25851 l 35.23827,0 c 1.19221,10e-6 2.20785,0.44159 3.04692,1.32475 0.8831,0.83901 1.32468,1.85465 1.32475,3.04692 -7e-5,1.23643 -0.41957,2.29623 -1.25851,3.17939 -0.83907,0.83901 -1.87679,1.25851 -3.11316,1.25851 l -52.85741,0 c -1.23643,0 -2.29623,-0.4195 -3.17939,-1.25851 -0.83901,-0.88316 -1.25851,-1.94296 -1.25851,-3.17939 l 0,-52.79117"
           inkscape:connector-curvature="0" />
        <path
           id="path3860"
           style="font-weight:normal;fill:#00ccff;stroke:#782144;font-family:Arcade Rounded;-inkscape-font-specification:Arcade Rounded"
           d="m 350.2522,206.24862 -35.23827,0 c -1.23643,6e-5 -2.29623,0.44164 -3.17939,1.32474 -0.83901,0.83907 -1.25851,1.87679 -1.25851,3.11316 l 0,52.79117 c 0,1.23643 0.4195,2.29623 1.25851,3.17939 0.88316,0.83901 1.94296,1.25851 3.17939,1.25851 l 35.23827,0 c 2.9144,0 5.40934,-1.03772 7.48482,-3.11316 l 11.39282,-11.39282 c 2.07538,-2.07542 3.1131,-4.57036 3.11316,-7.48482 l 0,-17.61914 c -6e-5,-2.95856 -1.03778,-5.47557 -3.11316,-7.55106 l -11.39282,-11.39282 c -2.07548,-2.07538 -4.57042,-3.11309 -7.48482,-3.11315 m 4.37167,39.67617 c -5e-5,3.09109 -1.43519,6.07177 -4.30543,8.94204 -2.82617,2.82614 -5.78477,4.2392 -8.87581,4.23919 l -8.80957,0 c -1.23645,10e-6 -2.29624,-0.41949 -3.17939,-1.25851 -0.83902,-0.88315 -1.25853,-1.94295 -1.25851,-3.17939 l 0,-35.17203 c -2e-5,-1.23639 0.41949,-2.2741 1.25851,-3.11316 0.88315,-0.88311 1.94294,-1.32469 3.17939,-1.32475 l 8.80957,0 c 3.09104,6e-5 6.04964,1.4352 8.87581,4.30543 2.87024,2.87033 4.30538,5.85101 4.30543,8.94204 l 0,17.61914"
           inkscape:connector-curvature="0" />
        <path
           id="path3862"
           style="font-weight:normal;fill:#00ccff;stroke:#782144;font-family:Arcade Rounded;-inkscape-font-specification:Arcade Rounded"
           d="m 389.83872,210.68652 c -1e-5,-1.23637 0.41949,-2.27409 1.25851,-3.11316 0.88315,-0.8831 1.94295,-1.32468 3.17939,-1.32474 l 44.04784,0 c 1.23637,6e-5 2.27409,0.44164 3.11316,1.32474 0.83894,0.83907 1.25844,1.87679 1.25851,3.11316 -7e-5,2.95865 -2.16382,4.43795 -6.49127,4.4379 -0.52995,5e-5 -1.30272,-0.022 -2.3183,-0.0662 -1.01569,-0.0441 -1.78846,-0.0662 -2.31831,-0.0662 -4.32755,5e-5 -6.4913,1.50143 -6.49126,4.50414 l 0,35.17203 c -4e-5,3.00277 2.16371,4.50415 6.49126,4.50414 0.52985,1e-5 1.30262,-0.0221 2.31831,-0.0662 1.01558,-0.0442 1.78835,-0.0662 2.3183,-0.0662 4.32745,10e-6 6.4912,1.47931 6.49127,4.43791 -7e-5,1.23643 -0.41957,2.29623 -1.25851,3.17939 -0.83907,0.83901 -1.87679,1.25851 -3.11316,1.25851 l -44.04784,0 c -1.23644,0 -2.29624,-0.4195 -3.17939,-1.25851 -0.83902,-0.88316 -1.25852,-1.94296 -1.25851,-3.17939 -1e-5,-2.9586 2.16374,-4.4379 6.49126,-4.43791 0.52988,10e-6 1.30265,0.0221 2.31831,0.0662 1.01562,0.0442 1.78839,0.0663 2.3183,0.0662 4.32749,1e-5 6.49124,-1.50137 6.49126,-4.50414 l 0,-35.17203 c -2e-5,-3.00271 -2.16377,-4.50409 -6.49126,-4.50414 -0.52991,5e-5 -1.30268,0.0221 -2.3183,0.0662 -1.01566,0.0442 -1.78843,0.0663 -2.31831,0.0662 -4.32752,5e-5 -6.49127,-1.47925 -6.49126,-4.4379"
           inkscape:connector-curvature="0" />
        <path
           id="path3864"
           style="font-weight:normal;fill:#00ccff;stroke:#782144;font-family:Arcade Rounded;-inkscape-font-specification:Arcade Rounded"
           d="m 491.15845,206.24862 -17.61914,0 c -2.95862,6e-5 -5.47563,1.03777 -7.55105,3.11315 l -11.39283,11.39282 c -2.07544,2.07549 -3.11315,4.57042 -3.11315,7.48483 l 0,35.23827 c 0,1.23643 0.4195,2.29623 1.25851,3.17939 0.88316,0.83901 1.94296,1.25851 3.17939,1.25851 l 8.80957,0 c 2.95858,0 4.43788,-2.16375 4.4379,-6.49126 -2e-5,-0.52989 -0.0221,-1.30266 -0.0662,-2.31831 -0.0442,-1.01563 -0.0662,-1.7884 -0.0662,-2.31831 -1e-5,-4.32749 1.50137,-6.49124 4.50414,-6.49126 l 17.61914,0 c 2.95856,2e-5 4.43786,2.16377 4.4379,6.49126 -4e-5,0.52991 -0.0221,1.30268 -0.0662,2.31831 -0.0442,1.01565 -0.0663,1.78842 -0.0662,2.31831 -5e-5,4.32751 1.50133,6.49126 4.50414,6.49126 l 8.80957,0 c 1.23637,0 2.27408,-0.4195 3.11315,-1.25851 0.83895,-0.88316 1.25845,-1.94296 1.25851,-3.17939 l 0,-35.23827 c -6e-5,-2.91441 -1.03778,-5.40934 -3.11316,-7.48483 l -11.39282,-11.39282 c -2.07548,-2.07538 -4.57042,-3.11309 -7.48482,-3.11315 m 4.37167,30.80036 c -5e-5,1.23646 -0.41955,2.29626 -1.25851,3.1794 -0.83905,0.83903 -1.87677,1.25853 -3.11316,1.25851 l -17.61914,0 c -1.23645,2e-5 -2.29624,-0.41948 -3.17939,-1.25851 -0.83902,-0.88314 -1.25853,-1.94294 -1.25851,-3.1794 l 0,-8.80956 c -2e-5,-3.09104 1.43513,-6.04964 4.30543,-8.87581 2.87026,-2.87023 5.85094,-4.30537 8.94204,-4.30543 3.09104,6e-5 6.04964,1.4352 8.87581,4.30543 2.87024,2.82617 4.30538,5.78477 4.30543,8.87581 l 0,8.80956"
           inkscape:connector-curvature="0" />
      </g>
    </g>
    <path
       style="font-size:medium;font-style:normal;font-variant:normal;font-weight:normal;font-stretch:normal;text-indent:0;text-align:start;text-decoration:none;line-height:normal;letter-spacing:normal;word-spacing:normal;text-transform:none;direction:ltr;block-progression:tb;writing-mode:lr-tb;text-anchor:start;baseline-shift:baseline;color:#000000;fill:url(#linearGradient4023);fill-opacity:1;stroke:#ffffff;stroke-width:3.15033597;marker:none;visibility:visible;display:inline;overflow:visible;enable-background:accumulate;font-family:Sans;-inkscape-font-specification:Sans;stroke-miterlimit:4;stroke-dasharray:none"
       d="m 132.92686,226.45819 c -5.96162,0.0602 -12.00718,2.25572 -16.70811,5.94806 -5.01431,3.9385 -8.4854,9.56942 -9.78125,15.8125 l -43.125,207.21875 0,0.0312 c -1.725852,8.3453 0.613859,17.16705 6.28125,23.53125 5.667391,6.3642 14.167514,9.68841 22.65625,8.9375 l 554.25,-49.0937 c 7.60164,-0.67367 14.6842,-4.59605 19.28125,-10.6875 l 68.8125,-91.34375 c 5.79796,-7.70318 7.05461,-18.17234 3.25,-27.03125 -3.80461,-8.85891 -12.18524,-15.0704 -21.76367,-16.16993 L 136.30186,226.64569 c -0.009,-8.9e-4 0.0493,-0.30034 -0.0312,0 -0.69988,-0.0827 -1.41989,-0.1283 -2.125,-0.15625 l -0.0312,0 c -0.39827,-0.0138 -0.79006,-0.0353 -1.1875,-0.0312 z m -0.77061,12.32306 c 0.43316,-0.0252 0.88015,-0.0141 1.3125,0 0.009,3e-4 0.0221,-3.2e-4 0.0312,0 l 0.0625,0 c 0.11869,0.005 0.22308,0.0232 0.34375,0.0312 0.24223,0.0168 0.47846,0.0341 0.71875,0.0625 l 0.0625,0 0.0625,0 0.125,0.0312 0.25,0.0312 579.5,66.71875 c 5.16233,0.59259 9.98235,4.1667 12.03125,8.9375 2.05042,4.77433 1.34669,10.75046 -1.78125,14.90625 l -68.8125,91.3125 0,0.0312 c -2.49103,3.28143 -6.53774,5.47876 -10.65625,5.84375 l -554.25,49.125 c -4.620328,0.40871 -9.406683,-1.46769 -12.46875,-4.90625 -3.060536,-3.43683 -4.375925,-8.43104 -3.4375,-12.96875 l 0.25,-1.21875 0,-0.15625 42.84375,-205.875 c 0.70955,-3.41844 2.63049,-6.56306 5.375,-8.71875 2.39461,-1.88084 5.40538,-3.0112 8.4375,-3.1875 z"
       id="path4018"
       inkscape:connector-curvature="0"
       transform="matrix(0.95223663,0,0,0.95232214,19.171611,17.032916)"
       sodipodi:nodetypes="cscccsccccsccccccccccccccccccscccccsccccscc" />
  </g>
</svg>
